<svg xmlns="http://www.w3.org/2000/svg" style="display: none;">
    <symbol id="align-center" viewBox="0 0 32 32">
      <g><path d="M28 6H4c-1.1 0-2-.9-2-2s.9-2 2-2h24c1.1 0 2 .9 2 2s-.9 2-2 2zM24 14H8c-1.1 0-2-.9-2-2s.9-2 2-2h16c1.1 0 2 .9 2 2s-.9 2-2 2zM28 22H4c-1.1 0-2-.9-2-2s.9-2 2-2h24c1.1 0 2 .9 2 2s-.9 2-2 2zM24 30H8c-1.1 0-2-.9-2-2s.9-2 2-2h16c1.1 0 2 .9 2 2s-.9 2-2 2z"/></g>
    </symbol>
    <symbol id="align-justify" viewBox="0 0 32 32">
      <g><path d="M28 6H4c-1.1 0-2-.9-2-2s.9-2 2-2h24c1.1 0 2 .9 2 2s-.9 2-2 2zM28 14H4c-1.1 0-2-.9-2-2s.9-2 2-2h24c1.1 0 2 .9 2 2s-.9 2-2 2zM28 22H4c-1.1 0-2-.9-2-2s.9-2 2-2h24c1.1 0 2 .9 2 2s-.9 2-2 2zM28 30H4c-1.1 0-2-.9-2-2s.9-2 2-2h24c1.1 0 2 .9 2 2s-.9 2-2 2z"/></g>
    </symbol>
    <symbol id="align-left" viewBox="0 0 32 32">
      <g><path d="M28 6H4c-1.1 0-2-.9-2-2s.9-2 2-2h24c1.1 0 2 .9 2 2s-.9 2-2 2zM18 14H4c-1.1 0-2-.9-2-2s.9-2 2-2h14c1.1 0 2 .9 2 2s-.9 2-2 2zM28 22H4c-1.1 0-2-.9-2-2s.9-2 2-2h24c1.1 0 2 .9 2 2s-.9 2-2 2zM18 30H4c-1.1 0-2-.9-2-2s.9-2 2-2h14c1.1 0 2 .9 2 2s-.9 2-2 2z"/></g>
    </symbol>
    <symbol id="align-right" viewBox="0 0 32 32">
      <g><path d="M28 6H4c-1.1 0-2-.9-2-2s.9-2 2-2h24c1.1 0 2 .9 2 2s-.9 2-2 2zM28 14H14c-1.1 0-2-.9-2-2s.9-2 2-2h14c1.1 0 2 .9 2 2s-.9 2-2 2zM28 22H4c-1.1 0-2-.9-2-2s.9-2 2-2h24c1.1 0 2 .9 2 2s-.9 2-2 2zM28 30H14c-1.1 0-2-.9-2-2s.9-2 2-2h14c1.1 0 2 .9 2 2s-.9 2-2 2z"/></g>
    </symbol>
    <symbol id="archive" viewBox="0 0 32 32">
      <path d="M31 0H1C.5 0 0 .5 0 1v5h32V1c0-.5-.5-1-1-1zM2 29.5C2 30.9 3.1 32 4.5 32h23.1c1.3 0 2.5-1.1 2.5-2.5V8H2v21.5zM10 12h12v4H10v-4z"/>
    </symbol>
    <symbol id="audiences" viewBox="0 0 32 32">
      <circle cx="16" cy="16" r="16"/>
    </symbol>
    <symbol id="calendar" viewBox="0 0 32 32">
      <path d="M24 4V0h-4v4h-8V0H8v4H0v28h32V4h-8zm4 24H4V10h24v18z"/>
    </symbol>
    <symbol id="clipboard" viewBox="0 0 32 32">
      <circle cx="16" cy="16" r="16"/>
    </symbol>
    <symbol id="close" viewBox="0 0 32 32">
      <path d="M25.9 8.9l-2.8-2.8-7.1 7.1-7.1-7.1-2.8 2.8 7.1 7.1-7.1 7.1 2.8 2.8 7.1-7.1 7.1 7.1 2.8-2.8-7.1-7.1z"/>
    </symbol>
    <symbol id="code" viewBox="0 0 32 32">
      <g><path d="M24 26c-.3 0-.6-.1-.9-.2-1-.5-1.4-1.7-.9-2.7l3.6-7.1-3.6-7.1c-.5-1-.1-2.2.9-2.7s2.2-.1 2.7.9l4 8c.3.6.3 1.2 0 1.8l-4 8c-.4.7-1.1 1.1-1.8 1.1zM8 26c-.7 0-1.4-.4-1.8-1.1l-4-8c-.3-.6-.3-1.2 0-1.8l4-8c.5-1 1.7-1.4 2.7-.9 1 .5 1.4 1.7.9 2.7L6.2 16l3.6 7.1c.5 1 .1 2.2-.9 2.7-.3.1-.6.2-.9.2zM14 30h-.3c-1.1-.2-1.8-1.2-1.6-2.3l4-24c.2-1.1 1.2-1.8 2.3-1.6 1.1.2 1.8 1.2 1.6 2.3l-4 24c-.2.9-1 1.6-2 1.6z"/></g>
    </symbol>
    <symbol id="collaborators" viewBox="0 0 32 32">
      <circle cx="16" cy="16" r="16"/>
    </symbol>
    <symbol id="dimensions" viewBox="0 0 32 32">
      <circle cx="16" cy="16" r="16"/>
    </symbol>
    <symbol id="duplicate" viewBox="0 0 32 32">
      <g><path d="M22 32H2c-1.1 0-2-.9-2-2V9.9c0-1.1.9-2 2-2h20c1.1 0 2 .9 2 2V30c0 1.1-.9 2-2 2zM30 0H10C8.9 0 8 .9 8 2v2h18c1.1 0 2 .8 2 1.9V24h2c1.1 0 2-.8 2-1.9V2c0-1.1-.9-2-2-2z"/><path fill="#fff" d="M18 18h-4v-4h-4v4H6v4h4v4h4v-4h4z"/></g>
    </symbol>
    <symbol id="experiments" viewBox="0 0 32 32">
      <g><path d="M0 19v13h32V10l-10 9-12-5zM22 12.1l-12-5-10 5v-2L10 5l12 5L32 .6v2.5z"/><circle cx="10" cy="6" r="2"/><circle cx="22" cy="11" r="2"/></g>
    </symbol>
    <symbol id="goal" viewBox="0 0 32 32">
      <path d="M24.1 5.7c2.4 0 5.5-1.3 6.9-2.3V22c-1.4 1-4.6 2.3-6.9 2.3s-4.5-.7-5.9-1.7c-1.4-1-2.8-1.7-5.1-1.7-2.4 0-4.6 1.2-6 2.2V4.5c1.4-1 3.7-2.2 6-2.2 2.4 0 3.7.7 5.1 1.7s3.5 1.7 5.9 1.7zM3.1.4c1.1 0 2 .9 2 2V32H1V2.4c0-1.1 1-2 2.1-2z"/>
    </symbol>
    <symbol id="history" viewBox="0 0 32 32">
      <path d="M18.4 2.4C25.9 2.4 32 8.5 32 16s-6.1 13.6-13.6 13.6v-2.9c2.9 0 5.5-1.1 7.6-3.1s3.1-4.7 3.1-7.6c0-2.9-1.1-5.5-3.1-7.6s-4.7-3.1-7.6-3.1c-2.9 0-5.5 1.1-7.6 3.1-1.6 1.6-2.6 3.5-3 5.6h5.7l-6.8 7.8L-.1 14h5c1-6.5 6.7-11.6 13.5-11.6zm5.8 11.7V18h-7.8V8.2h3.9V14h3.9z"/>
    </symbol>
    <symbol id="integrations" viewBox="0 0 32 32">
      <path d="M23.5 8.5C22 3.6 17.4 0 12 0 5.4 0 0 5.4 0 12c0 5.4 3.6 10 8.5 11.5C10 28.4 14.6 32 20 32c6.6 0 12-5.4 12-12 0-5.4-3.6-10-8.5-11.5zM4 12c0-4.4 3.6-8 8-8 3 0 5.6 1.6 6.9 4.1-5.7.5-10.3 5.1-10.8 10.8C5.6 17.6 4 15 4 12zm16 0c0 4.4-3.6 8-8 8 0-4.4 3.6-8 8-8zm0 16c-3 0-5.6-1.6-6.9-4.1 5.8-.5 10.4-5.1 10.9-10.9 2.4 1.4 4.1 4 4.1 6.9C28 24.4 24.4 28 20 28z"/>
    </symbol>
    <symbol id="live-variables" viewBox="0 0 32 32">
      <g><path d="M28 2h-4c-1.1 0-2 .9-2 2s.9 2 2 2h2v20h-2c-1.1 0-2 .9-2 2s.9 2 2 2h4c1.1 0 2-.9 2-2V4c0-1.1-.9-2-2-2zM4 30h4c1.1 0 2-.9 2-2s-.9-2-2-2H6V6h2c1.1 0 2-.9 2-2s-.9-2-2-2H4c-1.1 0-2 .9-2 2v24c0 1.1.9 2 2 2zM21.1 20.3c-.1 0-.3 0-.4.1h-.2c-.9 0-2.6-.4-3.4-3.4l4.7-4.7c.9-.6.9-1.7.6-2.2l-.1-.1c-.6-.6-1.5-.6-2.1 0l-3.7 3.7c-1.7-3.7-4.8-4-5.8-4h-.4c-.9 0-1.5 1.1-1.5 1.9 0 .9.9 1.5 1.8 1.5h.1c1 0 2.7.2 3.5 3.1l-4.8 4.7c-.3.3-.4.6-.4 1s.2.7.4 1c.3.3.7.3 1.2.3s.8 0 1.2-.4l3.3-3.6c1.6 3.6 4.5 3.8 5.8 3.8h.4c.4 0 .8 0 1.1-.4.3-.4.3-.8.2-1.2-.4-.7-.9-1.1-1.5-1.1z"/></g>
    </symbol>
    <symbol id="pause" viewBox="0 0 32 32">
      <g><path d="M6 4h8v24H6zM18 4h8v24h-8z"/></g>
    </symbol>
    <symbol id="play" viewBox="0 0 32 32">
      <path d="M4 4v24l23.9-12z"/>
    </symbol>
    <symbol id="projects" viewBox="0 0 32 32">
      <g><path d="M0 2h4v4H0zM8 2h24v4H8zM0 10.1h4v4H0zM8 10.1h24v4H8zM0 18h4v4H0zM8 18h24v4H8zM0 26h4v4H0zM8 26h24v4H8z"/></g>
    </symbol>
    <symbol id="settings" viewBox="0 0 32 32">
      <path d="M30.8 13.5l-3.1-.5c-.2-.9-.6-1.8-1-2.6l2-2.5c.4-.5.4-1.3 0-1.8l-1.2-1.4c-.5-.6-1.3-.7-1.8-.3L23 6.1c-1.2-.8-2.5-1.4-4-1.8l-.5-3.1C18.4.5 17.8 0 17.2 0h-1.9c-.7 0-1.3.5-1.4 1.2l-.5 3.1c-1.2.3-2.3.8-3.3 1.4L7.5 3.9c-.5-.4-1.3-.4-1.8.1L4.4 5.3c-.5.5-.5 1.3-.1 1.8l1.8 2.6c-.6 1-1.1 2.1-1.4 3.3l-3.2.5c-.7.1-1.2.7-1.2 1.4v1.9c0 .7.5 1.3 1.2 1.4l3.2.5c.2 1 .6 1.9 1 2.8l-2 2.5c-.4.5-.4 1.3 0 1.8l1.2 1.4c.5.5 1.2.6 1.8.3l2.7-1.7c1.1.8 2.4 1.4 3.8 1.7l.5 3.1c.1.7.7 1.2 1.4 1.2H17c.7 0 1.3-.5 1.4-1.2l.5-3.1c1.2-.3 2.3-.7 3.3-1.4l2.7 1.9c.5.4 1.3.3 1.8-.1l1.3-1.3c.5-.5.5-1.2.1-1.8l-1.9-2.6c.6-1 1.1-2.1 1.4-3.3l3.1-.5c.7-.1 1.2-.7 1.2-1.4v-1.9c.1-.9-.4-1.5-1.1-1.6zm-14.6 8.2c-3.3 0-5.9-2.7-5.9-5.9 0-3.3 2.7-5.9 5.9-5.9 3.3 0 5.9 2.7 5.9 5.9.1 3.3-2.6 5.9-5.9 5.9z"/>
    </symbol>
    <symbol id="throbber" viewBox="0 0 40 40">
      <path opacity=".2" fill="#1d7ebd" d="M20.2 5.17c-8.253 0-14.945 6.69-14.945 14.945 0 8.255 6.692 14.946 14.946 14.946s14.947-6.69 14.947-14.945c0-8.254-6.692-14.946-14.946-14.946zm0 26.58c-6.424 0-11.633-5.21-11.633-11.635S13.777 8.48 20.2 8.48c6.426 0 11.634 5.21 11.634 11.635 0 6.426-5.208 11.634-11.633 11.634z"/><path fill="#1d7ebd" d="M26.013 10.047l1.654-2.866C25.47 5.91 22.924 5.17 20.2 5.17v3.31c2.12 0 4.1.577 5.813 1.567z"><animateTransform attributeType="xml" attributeName="transform" type="rotate" from="0 20 20" to="360 20 20" dur="0.5s" repeatCount="indefinite"/></path>
    </symbol>
    <symbol id="trash" viewBox="0 0 32 32">
      <g><path d="M8-.1h14V2H8zM2 2h26v6H2zM4 10h22v22H4z"/></g>
    </symbol>
    <symbol id="variation-settings" viewBox="0 0 32 32">
      <g><path d="M4 0h4v32H4zM14 0h4v32h-4zM24 0h4v32h-4z"/><circle fill="#fff" cx="6" cy="13" r="6"/><path d="M6 9c2.2 0 4 1.8 4 4s-1.8 4-4 4-4-1.8-4-4 1.8-4 4-4m0-2c-3.3 0-6 2.7-6 6s2.7 6 6 6 6-2.7 6-6-2.7-6-6-6z"/><circle fill="#fff" cx="16" cy="24" r="6"/><path d="M16 20c2.2 0 4 1.8 4 4s-1.8 4-4 4-4-1.8-4-4 1.8-4 4-4m0-2c-3.3 0-6 2.7-6 6s2.7 6 6 6 6-2.7 6-6-2.7-6-6-6z"/><circle fill="#fff" cx="26" cy="8" r="6"/><path d="M26 4c2.2 0 4 1.8 4 4s-1.8 4-4 4-4-1.8-4-4 1.8-4 4-4m0-2c-3.3 0-6 2.7-6 6s2.7 6 6 6 6-2.7 6-6-2.7-6-6-6z"/></g>
    </symbol></svg>