<svg xmlns="http://www.w3.org/2000/svg" style="display: none;">
    <symbol id="add" viewBox="0 0 32 32">
      <path d="M28 18v-6H18V2h-6v10H2v6h10v10h6V18z"/>
    </symbol>
    <symbol id="align-center" viewBox="0 0 32 32">
      <g><path d="M28 6H4c-1.1 0-2-.9-2-2s.9-2 2-2h24c1.1 0 2 .9 2 2s-.9 2-2 2zM24 14H8c-1.1 0-2-.9-2-2s.9-2 2-2h16c1.1 0 2 .9 2 2s-.9 2-2 2zM28 22H4c-1.1 0-2-.9-2-2s.9-2 2-2h24c1.1 0 2 .9 2 2s-.9 2-2 2zM24 30H8c-1.1 0-2-.9-2-2s.9-2 2-2h16c1.1 0 2 .9 2 2s-.9 2-2 2z"/></g>
    </symbol>
    <symbol id="align-justify" viewBox="0 0 32 32">
      <g><path d="M28 6H4c-1.1 0-2-.9-2-2s.9-2 2-2h24c1.1 0 2 .9 2 2s-.9 2-2 2zM28 14H4c-1.1 0-2-.9-2-2s.9-2 2-2h24c1.1 0 2 .9 2 2s-.9 2-2 2zM28 22H4c-1.1 0-2-.9-2-2s.9-2 2-2h24c1.1 0 2 .9 2 2s-.9 2-2 2zM28 30H4c-1.1 0-2-.9-2-2s.9-2 2-2h24c1.1 0 2 .9 2 2s-.9 2-2 2z"/></g>
    </symbol>
    <symbol id="align-left" viewBox="0 0 32 32">
      <g><path d="M28 6H4c-1.1 0-2-.9-2-2s.9-2 2-2h24c1.1 0 2 .9 2 2s-.9 2-2 2zM18 14H4c-1.1 0-2-.9-2-2s.9-2 2-2h14c1.1 0 2 .9 2 2s-.9 2-2 2zM28 22H4c-1.1 0-2-.9-2-2s.9-2 2-2h24c1.1 0 2 .9 2 2s-.9 2-2 2zM18 30H4c-1.1 0-2-.9-2-2s.9-2 2-2h14c1.1 0 2 .9 2 2s-.9 2-2 2z"/></g>
    </symbol>
    <symbol id="align-right" viewBox="0 0 32 32">
      <g><path d="M28 6H4c-1.1 0-2-.9-2-2s.9-2 2-2h24c1.1 0 2 .9 2 2s-.9 2-2 2zM28 14H14c-1.1 0-2-.9-2-2s.9-2 2-2h14c1.1 0 2 .9 2 2s-.9 2-2 2zM28 22H4c-1.1 0-2-.9-2-2s.9-2 2-2h24c1.1 0 2 .9 2 2s-.9 2-2 2zM28 30H14c-1.1 0-2-.9-2-2s.9-2 2-2h14c1.1 0 2 .9 2 2s-.9 2-2 2z"/></g>
    </symbol>
    <symbol id="archive" viewBox="0 0 32 32">
      <g><path d="M30 4c0-1.3-.6-2-2-2H4c-1.3 0-2 .6-2 2v4h28V4zM4 10v18c0 1.3.6 2 2 2h20c1.3 0 2.1-.6 2.1-2V10H4z"/><path fill="#fff" d="M18 18v-8h-4v8H8l8 8 8-8z"/></g>
    </symbol>
    <symbol id="audiences" viewBox="0 0 32 32">
      <g><path d="M11.5 11.4c0 1.9 1.2 3.6 2.8 4.3.6.2 1.2.4 1.8.4 2.6 0 4.7-2.1 4.7-4.7 0-1.9-1.2-3.6-2.8-4.3-.6-.2-1.2-.4-1.8-.4-2.6.1-4.7 2.1-4.7 4.7zM22.8 11.1c.4.1.7.1 1.1.1 2.6 0 4.7-2.1 4.7-4.7s-2.1-4.7-4.7-4.7c-2.2 0-4.1 1.6-4.5 3.6 2 1.3 3.3 3.3 3.4 5.7zM14.2 16C10.9 16 8 20.4 8 23.7V28.6l.3.1c3.1 1 3.8 1.2 7.6 1.2 4.4 0 7.6-1.5 7.7-1.6l.4-.3v-4.4c0-2.9-1.9-6.4-4.6-7.2-.4-.1-.8-.4-1.2-.4h-4zM8 11.3c.5 0 1-.1 1.5-.3.1-2.2 1.3-4.1 3.1-5.2-.4-2.2-2.3-3.9-4.6-3.9-2.6 0-4.6 2.1-4.6 4.7s2 4.7 4.6 4.7zM6 23.7c0-3.1 2-6.5 4.8-8.1C10 14.5 9.6 13 9.5 12H6c-3.3 0-6 2.3-6 5.6v6.3l.3.1c2.1.7 3.6 1 5.6 1.2v-1.5zM25.9 12h-3.1c0 1-.5 2.5-1.3 3.6.9.5 1.7 1.1 2.4 2.1 1.3 1.7 2.1 3.8 2.1 5.9V25c3.4-.2 5.4-.9 5.6-1h.4v-6.4c0-3.3-2.8-5.6-6.1-5.6z"/></g>
    </symbol>
    <symbol id="calendar" viewBox="0 0 32 32">
      <path d="M22 2V0h-4v2h-6V0H8v2H0v30h30V2h-8zM10 28H4v-6h6v6zm0-8H4v-6h6v6zm8 8h-6v-6h6v6zm0-8h-6v-6h6v6zm0-8H4V6h14v6zm8 16h-6v-6h6v6zm0-8h-6v-6h6v6zm0-8h-6V6h6v6z"/>
    </symbol>
    <symbol id="clipboard" viewBox="0 0 32 32">
      <g><path d="M10 12h12v4H10zM10 20h12v4H10zM18 2V0h-4v2H2v30h28V2H18zm8 26H6V6h4v2h12V6h4v22z"/></g>
    </symbol>
    <symbol id="close" viewBox="-289 381 32 32">
      <path d="M-261.7 389.8l-4.2-4.2-7.1 7.1-7.1-7.1-4.2 4.2 7.1 7.1-7.1 7.1 4.2 4.2 7.1-7.1 7.1 7.1 4.2-4.2-7.1-7.1z"/>
    </symbol>
    <symbol id="code" viewBox="0 0 32 32">
      <g><path d="M8 25.4c-.4 0-.8-.2-1.1-.5L.3 17c-.4-.5-.4-1.3 0-1.8l6.2-7.9c.5-.7 1.5-.9 2.1-.4.6.5.7 1.4.3 2L3.3 16l5.8 7c.5.6.4 1.5-.2 2-.3.2-.6.4-.9.4zM24 25.4c-.3 0-.7-.1-.9-.3-.6-.5-.7-1.4-.2-2l5.7-7.1-5.5-7c-.5-.6-.4-1.5.3-2 .6-.5 1.5-.4 2 .3l6.1 7.9c.4.5.4 1.3 0 1.8L25 24.9c-.2.3-.6.5-1 .5zM13.7 27.8c-.1 0-.2 0-.3-.1-.7-.2-1.2-.9-1.1-1.7l4.9-20.8c.2-.7 1-1.2 1.8-1 .7.2 1.2.9 1.1 1.7l-4.9 20.8c-.3.7-.9 1.1-1.5 1.1z"/></g>
    </symbol>
    <symbol id="collaborators" viewBox="0 0 32 32">
      <g><circle cx="9" cy="7" r="5"/><circle cx="23" cy="7" r="5"/><path d="M32 32v-.2L28 16c0-1.1-.9-2-2-2h-6c-1.1 0-2 .9-2 2v16h14zM13.9 32l.1-.2V15.9c0-1.1-1-1.9-2.1-1.9h-6c-1.1 0-1.9.8-1.9 1.9L0 31.8l-.1.2h14z"/></g>
    </symbol>
    <symbol id="dimensions" viewBox="0 0 32 32">
      <g><path fill="#fff" d="M17 2L2 8l14.9 6L32 7.9 17 2z"/><path d="M16 30L2 24V10l14 6zM30 12.6v9.8l-10 4.9v-9.8l10-4.9m2-2.7l-14 6v14l14-6v-14z"/><path fill="#fff" d="M30 12.6v9.8l-10 4.9v-9.8l10-4.9"/><path stroke="#000" stroke-width="2" stroke-miterlimit="10" d="M30 8M4 8" fill="none"/><path d="M17 4.1L27.2 8l-10.3 4L6.7 8 17 4.1M17 2L2 8l14.9 6L32 7.9 17 2z"/></g>
    </symbol>
    <symbol id="duplicate" viewBox="0 0 32 32">
      <g><path d="M22 32H2c-1.1 0-2-.9-2-2V9.9c0-1.1.9-2 2-2h20c1.1 0 2 .9 2 2V30c0 1.1-.9 2-2 2zM30 0H10C8.9 0 8 .9 8 2v2h18c1.1 0 2 .8 2 1.9V24h2c1.1 0 2-.8 2-1.9V2c0-1.1-.9-2-2-2z"/><path fill="#fff" d="M18 18h-4v-4h-4v4H6v4h4v4h4v-4h4z"/></g>
    </symbol>
    <symbol id="editor-switch" viewBox="0 0 16 16">
      <path fill="#fff" d="M10.2 7.4v-2c0-1.7-1.4-3-3-3h-.6c-1.6 0-3 1.3-3 3v2c0 1.7 1.4 3 3 3h.6c1.6 0 3-1.3 3-3z"/><path d="M9.9 10.9h-6c-.5 0-.9-.4-.9-.9V2.8c0-.5.4-.9.9-.9h6c.5 0 .9.4.9.9v7.3c-.1.5-.5.8-.9.8zm-5.8-1h5.5V3H4.1v6.9z"/><path fill="#fff" d="M12.3 10.5v-2c0-1.7-1.3-3-3-3h-.6c-1.6 0-3 1.4-3 3v2c0 1.6 1.3 3 3 3h.6c1.6 0 3-1.3 3-3z"/><path d="M12 14.1H6c-.5 0-.9-.4-.9-.9V5.9c0-.5.4-.9.9-.9h6c.5 0 .9.4.9.9v7.3c-.1.5-.5.9-.9.9zM6.2 13h5.5V6.1H6.2V13zM15.2 6.6l-1-.3c.2-.7 0-1.3-.4-1.8-.5-.5-1.3-.6-2-.3l-.4-1c1.1-.5 2.3-.3 3.1.4.7.8 1 1.9.7 3zM13.7 5.3L13.6 8 16 6.8zM3.2 13c-.8 0-1.6-.3-2.2-1-1.1-1.2-1.3-3-.6-4.5l1 .5c-.6 1.1-.4 2.4.4 3.3.6.6 1.4.8 2.3.4l.4 1c-.5.2-.9.3-1.3.3zM1.8 8.9l.3-2.7-2.5 1z"/>
    </symbol>
    <symbol id="experiments" viewBox="0 0 32 32">
      <g><path d="M0 22v10h32V14l-10 6-12-4zM22 12.1l-12-4-10 6v-4L10 4l12 4 10-6.4V6z"/></g>
    </symbol>
    <symbol id="goal" viewBox="0 0 32 32">
      <g><path d="M2 .1C3 .1 4 1 4 2v30H0V2C0 1 .9.1 2 .1zM25 6.2c2.4 0 5.5-1.3 6.9-2.3v18.6c-1.4 1-4.6 2.3-6.9 2.3s-4.5-.7-5.9-1.7c-1.4-1-2.8-1.7-5.1-1.7-2.4 0-4.5 1.5-6 2.5V5.3c1.4-1 3.6-2.5 6-2.5s3.7.7 5.1 1.7 3.5 1.7 5.9 1.7z"/></g>
    </symbol>
    <symbol id="hamburger" viewBox="0 0 32 32">
      <path d="M28 8H4c-1.1 0-2-.9-2-2s.9-2 2-2h24c1.1 0 2 .9 2 2s-.9 2-2 2zM28 18H4c-1.1 0-2-.9-2-2s.9-2 2-2h24c1.1 0 2 .9 2 2s-.9 2-2 2zM28 28H4c-1.1 0-2-.9-2-2s.9-2 2-2h24c1.1 0 2 .9 2 2s-.9 2-2 2z"/>
    </symbol>
    <symbol id="history" viewBox="0 0 32 32">
      <g><path d="M18 2C10.9 2 5.1 7.2 4.2 14H0l6 6 6-6H7.2c.9-5.1 5.4-9 10.8-9 6.1 0 11 4.9 11 11s-4.9 11-11 11c-4 0-7.6-2.2-9.5-5.5l-2.2 2.2C8.8 27.5 13.1 30 18 30c7.7 0 14-6.3 14-14S25.7 2 18 2zM16 8h4v8h-4zM20.9 23.9L24 22l-4-6h-4z"/></g>
    </symbol>
    <symbol id="inconclusive" viewBox="0 0 32 32">
      <circle fill="#fff" cx="16" cy="15.9" r="15.9"/><path d="M16 3c7.1 0 12.9 5.8 12.9 12.9s-5.8 13-12.9 13-13-5.8-13-13S8.8 3 16 3m0-3C7.2 0 0 7.1 0 15.9s7.2 16 16 16S31.9 24.8 31.9 16 24.8 0 16 0zM14 6h4v12h-4zM14 14h10v4H14z"/>
    </symbol>
    <symbol id="integrations" viewBox="0 0 32 32">
      <g><path d="M25.5 9.3c.1.4.2.8.2 1.2.1.8 0 1.8-.1 2.5 2.1 1.7 3.4 4.2 3.4 7 0 5-4 9-9 9s-9-4-9-9c0-4.6 3.4-8.3 7.8-8.9 0-.4-.1-1.1-.4-1.9-.2-.4-.3-.8-.5-1C12.3 9.2 8 14.1 8 20c0 6.6 5.4 12 12 12s12-5.4 12-12c0-4.6-2.6-8.7-6.5-10.7zM12 0C5.4 0 0 5.4 0 12c0 4.4 2.4 8.3 6 10.4-.1-.8-.2-1.6-.2-2 0-.4.1-1.2.2-1.7C4.1 17 3 14.6 3 12c0-5 4-9 9-9s9 4 9 9c0 4.5-3.3 8.3-7.7 8.9 0 .5 0 .9.3 1.5.3.7.4 1 .7 1.3 5.5-1.1 9.6-6 9.6-11.8C24 5.4 18.6 0 12 0z"/></g>
    </symbol>
    <symbol id="live-variables" viewBox="0 0 32 32">
      <g><path d="M30 0h-6c-1.1 0-2 .9-2 2s.9 2 2 2h4v24h-4c-1.1 0-2 .9-2 2s.9 2 2 2h6c1.1 0 2-.9 2-2V2c0-1.1-.9-2-2-2zM2 32h6c1.1 0 2-.9 2-2s-.9-2-2-2H4V4h4c1.1 0 2-.9 2-2s-.9-2-2-2H2C.9 0 0 .9 0 2v28c0 1.1.9 2 2 2zM22.2 20.7c-.2 0-.6.1-.7.1-1.1 0-3.1-.5-3.9-3.9l5.8-5.9s1.2-1.2.4-2.3c-.3-.6-1.8-1-2.6-.2l-4.3 4.3C15 8.4 11.1 8 9.7 8S8 9.8 8 10.8c0 1 .9 2.1 2.2 2.2s3.2-.2 4.1 3.2l-5.6 5.3c-.3.3-.5.6-.5 1.1 0 .5.2.8.5 1.1.3.4.8.3 1.3.3s.9 0 1.4-.4l3.8-4.1c1.9 4.2 5.3 4.5 6.7 4.5 0 0 2.1-.1 2.1-2 0-1.2-1-1.3-1.8-1.3z"/></g>
    </symbol>
    <symbol id="lock" viewBox="0 0 32 32">
      <g><path d="M26 12c0-5.5-4.5-10-10-10S6 6.5 6 12c-1.2 0-2 .9-2 2v16c0 1.1.8 2 1.9 2h20c1.1 0 2-.9 2-2V14c.1-1.1-.8-2-1.9-2zm-4.1 0h-13c0-3.9 3.1-7 7-7s7 3.1 7 7h-1z"/><path fill="#fff" d="M20 20c0-2.2-1.8-4-4-4s-4 1.8-4 4c0 1.5.8 2.8 2 3.4V26c0 1.1.9 2 2 2s2-.9 2-2v-2.6c1-.7 2-1.9 2-3.4z"/></g>
    </symbol>
    <symbol id="loser" viewBox="0 0 32 32">
      <circle cx="16" cy="16" r="16"/><path fill="#fff" d="M14 6h4v14h-4zM14 22h4v4h-4z"/>
    </symbol>
    <symbol id="paperclip" viewBox="0 0 32 32">
      <path d="M15.6 32c-4.1 0-8.2-2.4-8.2-7V6.8c0-4.5 2.9-6.8 5.8-6.8S19 2.4 19 6.8v15.8c0 2.6-1.7 3.9-3.4 3.9-.9 0-1.8-.4-2.4-1-.5-.5-1-1.4-1-2.9V8c0-.6.4-1 1-1s1 .4 1 1v14.6c0 1.3.7 1.9 1.4 1.9s1.4-.6 1.4-1.9V6.8C17 3.5 15 2 13.2 2S9.3 3.5 9.3 6.8V25c0 3.4 3.2 5 6.2 5s6.2-1.6 6.2-5V8c0-.6.4-1 1-1s1 .4 1 1v17c.1 4.6-4 7-8.1 7z"/>
    </symbol>
    <symbol id="pause" viewBox="0 0 32 32">
      <g><path d="M6 4h8v24H6zM18 4h8v24h-8z"/></g>
    </symbol>
    <symbol id="play" viewBox="0 0 32 32">
      <path d="M4 4v24l23.9-12z"/>
    </symbol>
    <symbol id="projects" viewBox="0 0 32 32">
      <g><path d="M2 4h4v4H2zM10 4h20v4H10zM2 14h4v4H2zM10 14h20v4H10zM2 24h4v4H2zM10 24h20v4H10z"/></g>
    </symbol>
    <symbol id="refresh" viewBox="0 0 32 32">
      <path d="M24.6 9.5l-2.2 2.2c.7 1.2 1.1 2.5 1.1 3.9 0 4.3-3.5 7.8-7.8 7.8s-7.8-3.5-7.8-7.8 3.5-7.8 7.8-7.8h.3V13l4.7-4.7 1.6-1.6L16 .5v4.4h-.3C9.8 4.9 5 9.7 5 15.6c0 5.9 4.8 10.8 10.8 10.8 5.9 0 10.8-4.8 10.8-10.8-.1-2.2-.8-4.4-2-6.1z"/>
    </symbol>
    <symbol id="settings" viewBox="0 0 32 32">
      <path d="M30.8 13.5l-3.1-.5c-.2-.9-.6-1.8-1-2.6l2-2.5c.4-.5.4-1.3 0-1.8l-1.2-1.4c-.5-.6-1.3-.7-1.8-.3L23 6.1c-1.2-.8-2.5-1.4-4-1.8l-.5-3.1C18.4.5 17.8 0 17.2 0h-1.9c-.7 0-1.3.5-1.4 1.2l-.5 3.1c-1.2.3-2.3.8-3.3 1.4L7.5 3.9c-.5-.4-1.3-.4-1.8.1L4.4 5.3c-.5.5-.5 1.3-.1 1.8l1.8 2.6c-.6 1-1.1 2.1-1.4 3.3l-3.2.5c-.7.1-1.2.7-1.2 1.4v1.9c0 .7.5 1.3 1.2 1.4l3.2.5c.2 1 .6 1.9 1 2.8l-2 2.5c-.4.5-.4 1.3 0 1.8l1.2 1.4c.5.5 1.2.6 1.8.3l2.7-1.7c1.1.8 2.4 1.4 3.8 1.7l.5 3.1c.1.7.7 1.2 1.4 1.2H17c.7 0 1.3-.5 1.4-1.2l.5-3.1c1.2-.3 2.3-.7 3.3-1.4l2.7 1.9c.5.4 1.3.3 1.8-.1l1.3-1.3c.5-.5.5-1.2.1-1.8l-1.9-2.6c.6-1 1.1-2.1 1.4-3.3l3.1-.5c.7-.1 1.2-.7 1.2-1.4v-1.9c.1-.9-.4-1.5-1.1-1.6zm-14.6 8.2c-3.3 0-5.9-2.7-5.9-5.9 0-3.3 2.7-5.9 5.9-5.9 3.3 0 5.9 2.7 5.9 5.9.1 3.3-2.6 5.9-5.9 5.9z"/>
    </symbol>
    <symbol id="star" viewBox="0 0 32 32">
      <path d="M16 2l3.7 10.7h11.1l-8.9 6.7L25.2 30 16 23.7 6.9 30l3.2-10.6-8.8-6.7h11.1z"/>
    </symbol>
    <symbol id="sync" viewBox="0 0 32 32">
      <g><path d="M24.6 9.5l-1.9 1.9c1.9 3.1 1.4 7.3-1.3 10-2 2-4.4 2.7-7.4 2.2v-5l-4.6 4.7-1.6 1.6 6.2 6.3v-4.8c3 .5 6.8-.5 9.3-3 3.7-3.9 4.2-9.8 1.3-13.9zM10.1 9.9C11.7 8.3 14 7.5 16 7.6v5.5l4.7-4.7 1.6-1.6L16 .5v4.4c-3 0-5.6 1-7.8 3.1-3.6 3.6-4.1 9-1.6 13.1l2-2c-1.5-2.9-1-6.7 1.5-9.2z"/></g>
    </symbol>
    <symbol id="trash" viewBox="0 0 32 32">
      <g><path d="M8-.1h14V2H8zM2 2h26v6H2zM4 10h22v22H4z"/></g>
    </symbol>
    <symbol id="variation-settings" viewBox="0 0 32 32">
      <g><path d="M12 12.6v-.7c-.5-2.1-2-3.8-4-4.5V0H4v7.3c-2.3.8-4 3-4 5.7s1.7 4.8 4 5.7V32h4V18.7c2-.7 3.5-2.5 3.9-4.6V13s.1-.3.1-.4zM6 16c-1.7 0-3-1.3-3-3s1.3-3 3-3 3 1.3 3 3-1.3 3-3 3zM22 21.6v-.7c-.4-2.1-1.9-3.9-3.9-4.6V0h-4v16.3c-2.3.8-4 3-4 5.7s1.7 4.8 4 5.7V32h4v-4.3c2-.7 3.5-2.5 3.9-4.6v-1.5zM16 25c-1.7 0-3-1.3-3-3s1.3-3 3-3 3 1.3 3 3-1.3 3-3 3zM32 9.6v-.7c-.5-2.1-2-3.8-4-4.5V0h-4v4.3c-2 .8-4 3-4 5.7s2 4.8 4 5.7V32h4V15.7c2-.7 3.5-2.5 3.9-4.6V10s.1-.3.1-.4zM26 13c-1.7 0-3-1.3-3-3s1.3-3 3-3 3 1.3 3 3-1.4 3-3 3z"/></g>
    </symbol>
    <symbol id="winner" viewBox="0 0 32 32">
      <circle cx="16" cy="16" r="16"/><path fill="#fff" d="M16.9 21.5l7.8-12.4-3.6-2.3L13.2 19l-3.6-2.3-2.3 3.6 6.8 4.5.4.3.5-.6z"/>
    </symbol></svg>