<svg xmlns="http://www.w3.org/2000/svg" style="display: none;">
    <symbol id="archive" viewBox="0 0 32 32">
      <path d="M31 0H1C.5 0 0 .5 0 1v5h32V1c0-.5-.5-1-1-1zM2 29.5C2 30.9 3.1 32 4.5 32h23.1c1.3 0 2.5-1.1 2.5-2.5V8H2v21.5zM10 12h12v4H10v-4z"/>
    </symbol>
    <symbol id="calendar" viewBox="0 0 32 32">
      <path d="M24 4V0h-4v4h-8V0H8v4H0v28h32V4h-8zm4 24H4V10h24v18z"/>
    </symbol>
    <symbol id="duplicate" viewBox="0 0 32 32">
      <g><path d="M12 0v10H2v22h28V0zM8 0L2 6h6z"/><path fill="#fff" d="M22 16h-4v-4h-4v4h-4v4h4v4h4v-4h4z"/></g>
    </symbol>
    <symbol id="experiments" viewBox="0 0 32 32">
      <g><path d="M0 19v13h32V10l-10 9-12-5zM22 12.1l-12-5-10 5v-2L10 5l12 5L32 .6v2.5z"/><circle cx="10" cy="6" r="2"/><circle cx="22" cy="11" r="2"/></g>
    </symbol>
    <symbol id="goal" viewBox="0 0 32 32">
      <path d="M24.1 5.7c2.4 0 5.5-1.3 6.9-2.3V22c-1.4 1-4.6 2.3-6.9 2.3s-4.5-.7-5.9-1.7c-1.4-1-2.8-1.7-5.1-1.7-2.4 0-4.6 1.2-6 2.2V4.5c1.4-1 3.7-2.2 6-2.2 2.4 0 3.7.7 5.1 1.7s3.5 1.7 5.9 1.7zM3.1.4c1.1 0 2 .9 2 2V32H1V2.4c0-1.1 1-2 2.1-2z"/>
    </symbol>
    <symbol id="history" viewBox="0 0 32 32">
      <path d="M18.4 2.4C25.9 2.4 32 8.5 32 16s-6.1 13.6-13.6 13.6v-2.9c2.9 0 5.5-1.1 7.6-3.1s3.1-4.7 3.1-7.6c0-2.9-1.1-5.5-3.1-7.6s-4.7-3.1-7.6-3.1c-2.9 0-5.5 1.1-7.6 3.1-1.6 1.6-2.6 3.5-3 5.6h5.7l-6.8 7.8L-.1 14h5c1-6.5 6.7-11.6 13.5-11.6zm5.8 11.7V18h-7.8V8.2h3.9V14h3.9z"/>
    </symbol>
    <symbol id="pause" viewBox="0 0 32 32">
      <g><path d="M2 0h12v32H2zM18 0h12v32H18z"/></g>
    </symbol>
    <symbol id="play" viewBox="0 0 32 32">
      <path d="M0 0v32l31.8-16z"/>
    </symbol>
    <symbol id="settings" viewBox="0 0 32 32">
      <path d="M30.8 13.5l-3.1-.5c-.2-.9-.6-1.8-1-2.6l2-2.5c.4-.5.4-1.3 0-1.8l-1.2-1.4c-.5-.6-1.3-.7-1.8-.3L23 6.1c-1.2-.8-2.5-1.4-4-1.8l-.5-3.1C18.4.5 17.8 0 17.2 0h-1.9c-.7 0-1.3.5-1.4 1.2l-.5 3.1c-1.2.3-2.3.8-3.3 1.4L7.5 3.9c-.5-.4-1.3-.4-1.8.1L4.4 5.3c-.5.5-.5 1.3-.1 1.8l1.8 2.6c-.6 1-1.1 2.1-1.4 3.3l-3.2.5c-.7.1-1.2.7-1.2 1.4v1.9c0 .7.5 1.3 1.2 1.4l3.2.5c.2 1 .6 1.9 1 2.8l-2 2.5c-.4.5-.4 1.3 0 1.8l1.2 1.4c.5.5 1.2.6 1.8.3l2.7-1.7c1.1.8 2.4 1.4 3.8 1.7l.5 3.1c.1.7.7 1.2 1.4 1.2H17c.7 0 1.3-.5 1.4-1.2l.5-3.1c1.2-.3 2.3-.7 3.3-1.4l2.7 1.9c.5.4 1.3.3 1.8-.1l1.3-1.3c.5-.5.5-1.2.1-1.8l-1.9-2.6c.6-1 1.1-2.1 1.4-3.3l3.1-.5c.7-.1 1.2-.7 1.2-1.4v-1.9c.1-.9-.4-1.5-1.1-1.6zm-14.6 8.2c-3.3 0-5.9-2.7-5.9-5.9 0-3.3 2.7-5.9 5.9-5.9 3.3 0 5.9 2.7 5.9 5.9.1 3.3-2.6 5.9-5.9 5.9z"/>
    </symbol>
    <symbol id="trash" viewBox="0 0 32 32">
      <g><path d="M8-.1h14V2H8zM2 2h26v4H2zM4 8v24h22V8H4zm6 20H8V12h2v16zm6 0h-2V12h2v16zm6 0h-2V12h2v16z"/></g>
    </symbol></svg>