<svg xmlns="http://www.w3.org/2000/svg" style="display: none;">

  <symbol id="search" viewBox="0 0 64 64">
    <title>search</title>
    <path d="M48 24.1C48 10.9 37.2.2 24.1.2 10.9.2.2 10.9.2 24.1S10.9 48 24.1 48 48 37.2 48 24.1zM24.1 41.9c-9.9 0-17.9-8-17.9-17.9s8-17.9 17.9-17.9S42 14.1 42 24s-8 17.9-17.9 17.9zM62 53.6L47.4 39c-2.2 3.4-5 6.3-8.4 8.4L53.6 62c2.3 2.3 6.1 2.3 8.4 0 2.5-2.3 2.5-6.1 0-8.4z"/>
  </symbol>

  <symbol id="expand" viewBox="0 0 14 15">
    <title>expand</title>
    <path d="M0 0h14v3H0zM9 5v3h3.03L7 13 1.972 8H5V5H0v10h14V5z"/>
  </symbol>

  <symbol id="collapse" viewBox="0 0 14 15">
    <title>collapse</title>
    <path d="M0 0h14v3H0zM5 15v-3H1.97L7 7l5.028 5H9v3h5V5H0v10z"/>
  </symbol>

  <symbol id="expand" viewBox="0 0 14 15">
    <title>expand</title>
    <path d="M0 0h14v3H0zM9 5v3h3.03L7 13 1.972 8H5V5H0v10h14V5z"/>
  </symbol>
  <symbol id="collapse" viewBox="0 0 14 15">
    <title>collapse</title>
    <path d="M0 0h14v3H0zM5 15v-3H1.97L7 7l5.028 5H9v3h5V5H0v10z"/>
  </symbol>

  <symbol id="expand" viewBox="0 0 14 15">
    <title>expand</title>
    <path d="M0 0h14v3H0zM9 5v3h3.03L7 13 1.972 8H5V5H0v10h14V5z"/>
  </symbol>

  <symbol id="collapse" viewBox="0 0 14 15">
    <title>collapse</title>
    <path d="M0 0h14v3H0zM5 15v-3H1.97L7 7l5.028 5H9v3h5V5H0v10z"/>
  </symbol>

  <symbol id="expand" viewBox="0 0 14 15">
    <title>expand</title>
    <path d="M0 0h14v3H0zM9 5v3h3.03L7 13 1.972 8H5V5H0v10h14V5z"/>
  </symbol>
  <symbol id="collapse" viewBox="0 0 14 15">
    <title>collapse</title>
    <path d="M0 0h14v3H0zM5 15v-3H1.97L7 7l5.028 5H9v3h5V5H0v10z"/>
  </symbol>

  <symbol id="expand" viewBox="0 0 14 15">
    <title>expand</title>
    <path d="M0 0h14v3H0zM9 5v3h3.03L7 13 1.972 8H5V5H0v10h14V5z"/>
  </symbol>

  <symbol id="collapse" viewBox="0 0 14 15">
    <title>collapse</title>
    <path d="M0 0h14v3H0zM5 15v-3H1.97L7 7l5.028 5H9v3h5V5H0v10z"/>
  </symbol>

  <symbol id="expand" viewBox="0 0 14 15">
    <title>expand</title>
    <path d="M0 0h14v3H0zM9 5v3h3.03L7 13 1.972 8H5V5H0v10h14V5z"/>
  </symbol>

  <symbol id="collapse" viewBox="0 0 14 15">
    <title>collapse</title>
    <path d="M0 0h14v3H0zM5 15v-3H1.97L7 7l5.028 5H9v3h5V5H0v10z"/>
  </symbol>

  <symbol id="expand" viewBox="0 0 14 15">
    <title>expand</title>
    <path d="M0 0h14v3H0zM9 5v3h3.03L7 13 1.972 8H5V5H0v10h14V5z"/>
  </symbol>
  <symbol id="collapse" viewBox="0 0 14 15">
    <title>collapse</title>
    <path d="M0 0h14v3H0zM5 15v-3H1.97L7 7l5.028 5H9v3h5V5H0v10z"/>
  </symbol>

  <symbol id="expand" viewBox="0 0 14 15">
    <title>expand</title>
    <path d="M0 0h14v3H0zM9 5v3h3.03L7 13 1.972 8H5V5H0v10h14V5z"/>
  </symbol>

  <symbol id="collapse" viewBox="0 0 14 15">
    <title>collapse</title>
    <path d="M0 0h14v3H0zM5 15v-3H1.97L7 7l5.028 5H9v3h5V5H0v10z"/>
  </symbol>

  <symbol id="expand" viewBox="0 0 14 15">
    <title>expand</title>
    <path d="M0 0h14v3H0zM9 5v3h3.03L7 13 1.972 8H5V5H0v10h14V5z"/>
  </symbol>
  <symbol id="collapse" viewBox="0 0 14 15">
    <title>collapse</title>
    <path d="M0 0h14v3H0zM5 15v-3H1.97L7 7l5.028 5H9v3h5V5H0v10z"/>
  </symbol>

  <symbol id="expand" viewBox="0 0 14 15">
    <title>expand</title>
    <path d="M0 0h14v3H0zM9 5v3h3.03L7 13 1.972 8H5V5H0v10h14V5z"/>
  </symbol>

  <symbol id="collapse" viewBox="0 0 14 15">
    <title>collapse</title>
    <path d="M0 0h14v3H0zM5 15v-3H1.97L7 7l5.028 5H9v3h5V5H0v10z"/>
  </symbol>

  <symbol id="expand" viewBox="0 0 14 15">
    <title>expand</title>
    <path d="M0 0h14v3H0zM9 5v3h3.03L7 13 1.972 8H5V5H0v10h14V5z"/>
  </symbol>
</svg>