<?xml version="1.0" encoding="utf-8"?>
<!-- Generator: Adobe Illustrator 18.1.0, SVG Export Plug-In . SVG Version: 6.00 Build 0)  -->
<!DOCTYPE svg PUBLIC "-//W3C//DTD SVG 1.1//EN" "http://www.w3.org/Graphics/SVG/1.1/DTD/svg11.dtd">
<svg version="1.1" xmlns="http://www.w3.org/2000/svg" xmlns:xlink="http://www.w3.org/1999/xlink" x="0px" y="0px" width="32px"
	 height="32px" viewBox="0 0 32 32" enable-background="new 0 0 32 32" xml:space="preserve">
<g id="grid">
</g>
<g id="goal" display="none">
	<path display="inline" d="M24.1,5.7c2.4,0,5.5-1.3,6.9-2.3v18.6c-1.4,1-4.6,2.3-6.9,2.3s-4.5-0.7-5.9-1.7c-1.4-1-2.8-1.7-5.1-1.7
		c-2.4,0-4.6,1.2-6,2.2V4.5c1.4-1,3.7-2.2,6-2.2c2.4,0,3.7,0.7,5.1,1.7S21.7,5.7,24.1,5.7z M3.1,0.4c1.1,0,2,0.9,2,2V32H1V2.4
		C1,1.3,2,0.4,3.1,0.4z"/>
</g>
<g id="calendar" display="none">
	<path display="inline" d="M22,2V0h-4v2h-6V0H8v2H0v30h30V2H22z M10,28H4v-6h6V28z M10,20H4v-6h6V20z M18,28h-6v-6h6V28z M18,20h-6
		v-6h6V20z M18,12h-6h-2H4V6h14V12z M26,28h-6v-6h6V28z M26,20h-6v-6h6V20z M26,12h-6V6h6V12z"/>
</g>
<g id="history" display="none">
	<path display="inline" d="M18.4,2.4C25.9,2.4,32,8.5,32,16s-6.1,13.6-13.6,13.6v-2.9c2.9,0,5.5-1.1,7.6-3.1s3.1-4.7,3.1-7.6
		c0-2.9-1.1-5.5-3.1-7.6s-4.7-3.1-7.6-3.1c-2.9,0-5.5,1.1-7.6,3.1c-1.6,1.6-2.6,3.5-3,5.6h5.7l-6.8,7.8l-6.8-7.8h5
		C5.9,7.5,11.6,2.4,18.4,2.4z M24.2,14.1v3.9h-7.8V8.2h3.9v5.8H24.2z"/>
</g>
<g id="settings" display="none">
	<g id="settings_1_" display="inline">
		<path id="settings_2_" d="M30.9,13.5L27.8,13c-0.2-0.9-0.6-1.8-1-2.6l2-2.5c0.4-0.5,0.4-1.3,0-1.8l-1.2-1.4
			c-0.5-0.6-1.3-0.7-1.8-0.3l-2.7,1.7c-1.2-0.8-2.5-1.4-4-1.8l-0.5-3.1C18.5,0.5,17.9,0,17.3,0h-1.9c-0.7,0-1.3,0.5-1.4,1.2
			l-0.5,3.1c-1.2,0.3-2.3,0.8-3.3,1.4L7.6,3.9C7.1,3.5,6.3,3.5,5.8,4L4.5,5.3C4,5.8,4,6.6,4.4,7.1l1.8,2.6c-0.6,1-1.1,2.1-1.4,3.3
			l-3.2,0.5c-0.7,0.1-1.2,0.7-1.2,1.4v1.9c0,0.7,0.5,1.3,1.2,1.4l3.2,0.5c0.2,1,0.6,1.9,1,2.8l-2,2.5c-0.4,0.5-0.4,1.3,0,1.8L5,27.2
			c0.5,0.5,1.2,0.6,1.8,0.3l2.7-1.7c1.1,0.8,2.4,1.4,3.8,1.7l0.5,3.1c0.1,0.7,0.7,1.2,1.4,1.2h1.9c0.7,0,1.3-0.5,1.4-1.2l0.5-3.1
			c1.2-0.3,2.3-0.7,3.3-1.4L25,28c0.5,0.4,1.3,0.3,1.8-0.1l1.3-1.3c0.5-0.5,0.5-1.2,0.1-1.8l-1.9-2.6c0.6-1,1.1-2.1,1.4-3.3l3.1-0.5
			c0.7-0.1,1.2-0.7,1.2-1.4v-1.9C32.1,14.2,31.6,13.6,30.9,13.5z M16.3,21.7c-3.3,0-5.9-2.7-5.9-5.9c0-3.3,2.7-5.9,5.9-5.9
			c3.3,0,5.9,2.7,5.9,5.9C22.3,19.1,19.6,21.7,16.3,21.7z"/>
	</g>
</g>
<g id="archive" display="none">
	<path display="inline" d="M30,4c0-1.3-0.6-2-2-2h-24C2.7,2,2,2.6,2,4V8h28V4z"/>
	<path display="inline" d="M4,10v18c0,1.3,0.6,2,2,2h20c1.3,0,2.1-0.6,2.1-2V10H4z M16,26l-6-6h4v-6h4v6h4L16,26z"/>
</g>
<g id="experiment" display="none">
	<polygon display="inline" points="0,22 0,32 32,32 32,14 22,20 10,16 	"/>
	<polygon display="inline" points="22,12.1 10,8.1 0,14.1 0,10.1 10,4 22,8 32,1.6 32,6 	"/>
</g>
<g id="trash" display="none">
	<rect x="8" y="-0.1" display="inline" width="14" height="2.1"/>
	<rect x="2" y="2" display="inline" width="26" height="6"/>
	<rect x="4" y="10" display="inline" width="22" height="22"/>
</g>
<g id="play" display="none">
	<polygon display="inline" points="4,4 4,28 27.9,16 	"/>
</g>
<g id="pause" display="none">
	<rect x="6" y="4" display="inline" width="8" height="24"/>
	<rect x="18" y="4" display="inline" width="8" height="24"/>
</g>
<g id="duplicate" display="none">
	<path display="inline" d="M22,32H2c-1.1,0-2-0.9-2-2V9.9c0-1.1,0.9-2,2-2h20c1.1,0,2,0.9,2,2V30C24,31.1,23.1,32,22,32z"/>
	<path display="inline" d="M30,0H10C8.9,0,8,0.9,8,2v2h18c1.1,0,2,0.8,2,1.9V24h2c1.1,0,2-0.8,2-1.9V2C32,0.9,31.1,0,30,0z"/>
	<polygon display="inline" fill="#FFFFFF" points="18,18 14,18 14,14 10,14 10,18 6,18 6,22 10,22 10,26 14,26 14,22 18,22 	"/>
</g>
<g id="integrations" display="none">
	<path display="inline" d="M21,3.9c-1.8,0-3.5,0.4-5,1.2c-1.5-0.8-3.2-1.2-5-1.2c-6.1,0-11,4.9-11,11s4.9,11,11,11
		c1.8,0,3.5-0.4,5-1.2c1.5,0.8,3.2,1.2,5,1.2c6.1,0,11-4.9,11-11S27.1,3.9,21,3.9z M16,19.8c-1.2-1.3-2-3-2-4.9s0.8-3.6,2-4.9
		c1.2,1.3,2,3,2,4.9S17.2,18.5,16,19.8z M4,14.9c0-3.9,3.1-7,7-7c0.5,0,1,0,1.4,0.1c-1.5,1.9-2.4,4.3-2.4,6.9s0.9,5,2.4,6.9
		c-0.5,0.1-0.9,0.1-1.4,0.1C7.1,21.9,4,18.8,4,14.9z M21,21.9c-0.5,0-1,0-1.4-0.1c1.5-1.9,2.4-4.3,2.4-6.9s-0.9-5-2.4-6.9
		C20,8,20.5,7.9,21,7.9c3.9,0,7,3.1,7,7S24.9,21.9,21,21.9z"/>
</g>
<g id="audiences">
	<g>
		<path d="M11.5,11.4c0,1.9,1.2,3.6,2.8,4.3c0.6,0.2,1.2,0.4,1.8,0.4c2.6,0,4.7-2.1,4.7-4.7c0-1.9-1.2-3.6-2.8-4.3
			c-0.6-0.2-1.2-0.4-1.8-0.4C13.6,6.8,11.5,8.8,11.5,11.4z"/>
		<path d="M22.8,11.1c0.4,0.1,0.7,0.1,1.1,0.1c2.6,0,4.7-2.1,4.7-4.7c0-2.6-2.1-4.7-4.7-4.7c-2.2,0-4.1,1.6-4.5,3.6
			C21.4,6.7,22.7,8.7,22.8,11.1z"/>
		<path d="M14.2,16C10.9,16,8,20.4,8,23.7v4.8l0,0.1l0.3,0.1c3.1,1,3.8,1.2,7.6,1.2c4.4,0,7.6-1.5,7.7-1.6L24,28h0v-4.4
			c0-2.9-1.9-6.4-4.6-7.2C19,16.3,18.6,16,18.2,16H14.2z"/>
		<path d="M8,11.3c0.5,0,1-0.1,1.5-0.3c0.1-2.2,1.3-4.1,3.1-5.2C12.2,3.6,10.3,1.9,8,1.9C5.4,1.9,3.4,4,3.4,6.6
			C3.4,9.2,5.4,11.3,8,11.3z"/>
		<path d="M6,23.7c0-3.1,2-6.5,4.8-8.1C10,14.5,9.6,13,9.5,12H6c-3.3,0-6,2.3-6,5.6v6.2l0,0.1l0.3,0.1c2.1,0.7,3.6,1,5.6,1.2V23.7z"
			/>
		<path d="M25.9,12h-3.1c0,1-0.5,2.5-1.3,3.6c0.9,0.5,1.7,1.1,2.4,2.1c1.3,1.7,2.1,3.8,2.1,5.9V25c3.4-0.2,5.4-0.9,5.6-1l0.3,0H32
			v-6.4C32,14.3,29.2,12,25.9,12z"/>
	</g>
</g>
<g id="collaborators" display="none">
	<g display="inline">
		<path d="M7.1,12C3.5,12,0,17.3,0,21v5.4c0,0,4.8,1.6,9,1.6c4.9,0,5-2,5-2h0V16c0-1.3-0.1-2.4-0.6-3.1C12.9,12.2,12,12,11.5,12H7.1
			z"/>
	</g>
	<circle display="inline" cx="9" cy="7" r="5"/>
	<g display="inline">
		<path d="M24.9,12c3.7,0,7.1,5.3,7.1,9v5.4c0,0-4.8,1.6-9,1.6c-4.9,0-5-2-5-2h0V16c0-1.3,0.1-2.4,0.6-3.1c0.5-0.7,1.4-0.9,1.8-0.9
			H24.9z"/>
	</g>
	<circle display="inline" cx="23" cy="7" r="5"/>
</g>
<g id="projects" display="none">
	<rect x="2" y="4" display="inline" width="4" height="4"/>
	<rect x="10" y="4" display="inline" width="20" height="4"/>
	<rect x="2" y="14" display="inline" width="4" height="4"/>
	<rect x="10" y="14" display="inline" width="20" height="4"/>
	<rect x="2" y="24" display="inline" width="4" height="4"/>
	<rect x="10" y="24" display="inline" width="20" height="4"/>
</g>
<g id="close" display="none">
	<polygon display="inline" points="25.9,8.9 23.1,6.1 16,13.2 8.9,6.1 6.1,8.9 13.2,16 6.1,23.1 8.9,25.9 16,18.8 23.1,25.9 
		25.9,23.1 18.8,16 	"/>
</g>
<g id="code" display="none">
	<path display="inline" d="M24,26c-0.3,0-0.6-0.1-0.9-0.2c-1-0.5-1.4-1.7-0.9-2.7l3.6-7.1l-3.6-7.1c-0.5-1-0.1-2.2,0.9-2.7
		c1-0.5,2.2-0.1,2.7,0.9l4,8c0.3,0.6,0.3,1.2,0,1.8l-4,8C25.4,25.6,24.7,26,24,26z"/>
	<path display="inline" d="M8,26c-0.7,0-1.4-0.4-1.8-1.1l-4-8c-0.3-0.6-0.3-1.2,0-1.8l4-8c0.5-1,1.7-1.4,2.7-0.9
		c1,0.5,1.4,1.7,0.9,2.7L6.2,16l3.6,7.1c0.5,1,0.1,2.2-0.9,2.7C8.6,25.9,8.3,26,8,26z"/>
	<path display="inline" d="M14,30c-0.1,0-0.2,0-0.3,0c-1.1-0.2-1.8-1.2-1.6-2.3l4-24c0.2-1.1,1.2-1.8,2.3-1.6
		c1.1,0.2,1.8,1.2,1.6,2.3l-4,24C15.8,29.3,15,30,14,30z"/>
</g>
<g id="variation-settings" display="none">
	<rect x="4" display="inline" width="4" height="32"/>
	<rect x="14" display="inline" width="4" height="32"/>
	<rect x="24" display="inline" width="4" height="32"/>
	<g display="inline">
		<circle fill="#FFFFFF" cx="6" cy="13" r="6"/>
		<path d="M6,9c2.2,0,4,1.8,4,4s-1.8,4-4,4s-4-1.8-4-4S3.8,9,6,9 M6,7c-3.3,0-6,2.7-6,6s2.7,6,6,6s6-2.7,6-6S9.3,7,6,7L6,7z"/>
	</g>
	<g display="inline">
		<circle fill="#FFFFFF" cx="16" cy="24" r="6"/>
		<path d="M16,20c2.2,0,4,1.8,4,4s-1.8,4-4,4s-4-1.8-4-4S13.8,20,16,20 M16,18c-3.3,0-6,2.7-6,6s2.7,6,6,6s6-2.7,6-6S19.3,18,16,18
			L16,18z"/>
	</g>
	<g display="inline">
		<circle fill="#FFFFFF" cx="26" cy="8" r="6"/>
		<path d="M26,4c2.2,0,4,1.8,4,4s-1.8,4-4,4s-4-1.8-4-4S23.8,4,26,4 M26,2c-3.3,0-6,2.7-6,6s2.7,6,6,6s6-2.7,6-6S29.3,2,26,2L26,2z"
			/>
	</g>
</g>
<g id="right-align" display="none">
	<path display="inline" d="M28,6H4C2.9,6,2,5.1,2,4s0.9-2,2-2h24c1.1,0,2,0.9,2,2S29.1,6,28,6z"/>
	<path display="inline" d="M28,14H14c-1.1,0-2-0.9-2-2s0.9-2,2-2h14c1.1,0,2,0.9,2,2S29.1,14,28,14z"/>
	<path display="inline" d="M28,22H4c-1.1,0-2-0.9-2-2s0.9-2,2-2h24c1.1,0,2,0.9,2,2S29.1,22,28,22z"/>
	<path display="inline" d="M28,30H14c-1.1,0-2-0.9-2-2s0.9-2,2-2h14c1.1,0,2,0.9,2,2S29.1,30,28,30z"/>
</g>
<g id="left-align" display="none">
	<path display="inline" d="M28,6H4C2.9,6,2,5.1,2,4s0.9-2,2-2h24c1.1,0,2,0.9,2,2S29.1,6,28,6z"/>
	<path display="inline" d="M18,14H4c-1.1,0-2-0.9-2-2s0.9-2,2-2h14c1.1,0,2,0.9,2,2S19.1,14,18,14z"/>
	<path display="inline" d="M28,22H4c-1.1,0-2-0.9-2-2s0.9-2,2-2h24c1.1,0,2,0.9,2,2S29.1,22,28,22z"/>
	<path display="inline" d="M18,30H4c-1.1,0-2-0.9-2-2s0.9-2,2-2h14c1.1,0,2,0.9,2,2S19.1,30,18,30z"/>
</g>
<g id="center-align" display="none">
	<path display="inline" d="M28,6H4C2.9,6,2,5.1,2,4s0.9-2,2-2h24c1.1,0,2,0.9,2,2S29.1,6,28,6z"/>
	<path display="inline" d="M24,14H8c-1.1,0-2-0.9-2-2s0.9-2,2-2h16c1.1,0,2,0.9,2,2S25.1,14,24,14z"/>
	<path display="inline" d="M28,22H4c-1.1,0-2-0.9-2-2s0.9-2,2-2h24c1.1,0,2,0.9,2,2S29.1,22,28,22z"/>
	<path display="inline" d="M24,30H8c-1.1,0-2-0.9-2-2s0.9-2,2-2h16c1.1,0,2,0.9,2,2S25.1,30,24,30z"/>
</g>
<g id="justify-align" display="none">
	<path display="inline" d="M28,6H4C2.9,6,2,5.1,2,4s0.9-2,2-2h24c1.1,0,2,0.9,2,2S29.1,6,28,6z"/>
	<path display="inline" d="M28,14H4c-1.1,0-2-0.9-2-2s0.9-2,2-2h24c1.1,0,2,0.9,2,2S29.1,14,28,14z"/>
	<path display="inline" d="M28,22H4c-1.1,0-2-0.9-2-2s0.9-2,2-2h24c1.1,0,2,0.9,2,2S29.1,22,28,22z"/>
	<path display="inline" d="M28,30H4c-1.1,0-2-0.9-2-2s0.9-2,2-2h24c1.1,0,2,0.9,2,2S29.1,30,28,30z"/>
</g>
<g id="live-variables" display="none">
	<path display="inline" d="M28,2h-4c-1.1,0-2,0.9-2,2s0.9,2,2,2h2v20h-2c-1.1,0-2,0.9-2,2s0.9,2,2,2h4c1.1,0,2-0.9,2-2V4
		C30,2.9,29.1,2,28,2z"/>
	<path display="inline" d="M4,30h4c1.1,0,2-0.9,2-2s-0.9-2-2-2H6V6h2c1.1,0,2-0.9,2-2S9.1,2,8,2H4C2.9,2,2,2.9,2,4v24
		C2,29.1,2.9,30,4,30z"/>
	<path display="inline" d="M21.1,20.3c-0.1,0-0.3,0-0.4,0.1c0,0-0.1,0-0.2,0c-0.9,0-2.6-0.4-3.4-3.4l4.7-4.7
		c0.9-0.6,0.9-1.7,0.6-2.2l-0.1-0.1c-0.6-0.6-1.5-0.6-2.1,0l-3.7,3.7c-1.7-3.7-4.8-4-5.8-4c-0.3,0-0.4,0-0.4,0
		c-0.9,0-1.5,1.1-1.5,1.9c0,0.9,0.9,1.5,1.8,1.5h0.1c1,0,2.7,0.2,3.5,3.1l-4.8,4.7c-0.3,0.3-0.4,0.6-0.4,1c0,0.4,0.2,0.7,0.4,1
		c0.3,0.3,0.7,0.3,1.2,0.3s0.8,0,1.2-0.4l3.3-3.6c1.6,3.6,4.5,3.8,5.8,3.8h0.4c0.4,0,0.8,0,1.1-0.4c0.3-0.4,0.3-0.8,0.2-1.2
		C22.2,20.7,21.7,20.3,21.1,20.3z"/>
</g>
<g id="dimensions" display="none">
	<polygon display="inline" points="16,30 2,24 2,10 16,16 	"/>
	<path display="inline" d="M30,12.6v9.8l-10,4.9v-9.8L30,12.6 M32,9.9l-14,6v14l14-6V9.9L32,9.9z"/>
	<path display="inline" fill="none" stroke="#000000" stroke-width="2" stroke-miterlimit="10" d="M30,8"/>
	<path display="inline" fill="none" stroke="#000000" stroke-width="2" stroke-miterlimit="10" d="M4,8"/>
	<path display="inline" d="M17,4.1L27.2,8l-10.3,4L6.7,8L17,4.1 M17,2L2,8l14.9,6L32,7.9L17,2L17,2z"/>
</g>
<g id="clipboard" display="none">
	<g display="inline">
		<rect x="10" y="12" width="12" height="4"/>
		<rect x="10" y="20" width="12" height="4"/>
		<path d="M18,2V0h-4v2H2v30h28V2H18z M26,28H6V6h4l0,0v2h12V6l0,0h4V28z"/>
	</g>
</g>
<g id="lock" display="none">
	<path display="inline" d="M26,12L26,12c0-5.5-4.5-10-10-10c-5.5,0-10,4.5-10,10h0C4.8,12,4,12.9,4,14v16c0,1.1,0.8,2,1.9,2h20
		c1.1,0,2-0.9,2-2V14C28,12.9,27.1,12,26,12z M17.9,23.5c0,0.2,0.1,0.3,0.1,0.5v2c0,1.1-0.9,2-2,2s-2-0.9-2-2v-2c0-0.2,0-0.3,0-0.5
		c-1.2-0.7-2.1-2-2.1-3.5c0-2.2,1.8-4,4-4s4,1.8,4,4C20,21.5,19.1,22.8,17.9,23.5z M21.9,12h-2h-2h-4h-2h-3c0-3.9,3.1-7,7-7
		c3.9,0,7,3.1,7,7H21.9z"/>
</g>
</svg>
