<?xml version="1.0" encoding="utf-8"?>
<!-- Generator: Adobe Illustrator 18.1.1, SVG Export Plug-In . SVG Version: 6.00 Build 0)  -->
<!DOCTYPE svg PUBLIC "-//W3C//DTD SVG 1.1//EN" "http://www.w3.org/Graphics/SVG/1.1/DTD/svg11.dtd">
<svg version="1.1" id="Layer_1" xmlns:sketch="http://www.bohemiancoding.com/sketch/ns"
	 xmlns="http://www.w3.org/2000/svg" xmlns:xlink="http://www.w3.org/1999/xlink" x="0px" y="0px" viewBox="-480 281 32 32"
	 enable-background="new -480 281 32 32" xml:space="preserve">
<g id="Page-1" sketch:type="MSPage">
	<g id="bell" sketch:type="MSLayerGroup">
		<path id="_x3C_Compound_Path_x3E__6_" sketch:type="MSShapeGroup" d="M-453.2,300.8v-6.3c0-4.9-3.3-9.5-8.1-10.7
			c0,0-0.1-2.4-2.6-2.4c-2.5,0-2.6,2.4-2.6,2.4c-4.8,1.2-8,6-8.1,10.8v6.1c0,3-1.9,3.5-4.2,6h29.5
			C-451.4,304.1-453.2,303.8-453.2,300.8L-453.2,300.8z M-463.9,312.6c2.6,0,4.8-2.1,5.3-4.9h-10.7
			C-468.6,310.5-466.5,312.6-463.9,312.6L-463.9,312.6z"/>
	</g>
</g>
</svg>
