<?xml version="1.0" encoding="utf-8"?>
<!-- Generator: Adobe Illustrator 18.1.0, SVG Export Plug-In . SVG Version: 6.00 Build 0)  -->
<!DOCTYPE svg PUBLIC "-//W3C//DTD SVG 1.1//EN" "http://www.w3.org/Graphics/SVG/1.1/DTD/svg11.dtd">
<svg version="1.1" xmlns="http://www.w3.org/2000/svg" xmlns:xlink="http://www.w3.org/1999/xlink" x="0px" y="0px" width="32px"
	 height="32px" viewBox="0 0 32 32" enable-background="new 0 0 32 32" xml:space="preserve">
<g id="calendar">
	<path d="M22,2V0h-4v2h-6V0H8v2H0v30h30V2H22z M10,28H4v-6h6V28z M10,20H4v-6h6V20z M18,28h-6v-6h6V28z M18,20h-6v-6h6V20z M18,12
		h-6h-2H4V6h14V12z M26,28h-6v-6h6V28z M26,20h-6v-6h6V20z M26,12h-6V6h6V12z"/>
</g>
</svg>
