<?xml version="1.0" encoding="utf-8"?>
<!-- Generator: Adobe Illustrator 19.1.0, SVG Export Plug-In . SVG Version: 6.00 Build 0)  -->
<!DOCTYPE svg PUBLIC "-//W3C//DTD SVG 1.1 Tiny//EN" "http://www.w3.org/Graphics/SVG/1.1/DTD/svg11-tiny.dtd">
<svg version="1.1" baseProfile="tiny" id="Layer_1" xmlns="http://www.w3.org/2000/svg" xmlns:xlink="http://www.w3.org/1999/xlink"
	 x="0px" y="0px" viewBox="0 0 16 16" xml:space="preserve">
<g id="XMLID_22_">
	<g id="XMLID_102_">
		<path d="M14.5,14.8c-0.1,0-0.3,0-0.4-0.1l-13-13c-0.2-0.2-0.2-0.5,0-0.7s0.5-0.2,0.7,0l13,13c0.2,0.2,0.2,0.5,0,0.7
			C14.8,14.7,14.6,14.8,14.5,14.8z"/>
	</g>
	<g id="XMLID_23_">
		<path d="M1.5,14.8c-0.1,0-0.3,0-0.4-0.1c-0.2-0.2-0.2-0.5,0-0.7l13-13c0.2-0.2,0.5-0.2,0.7,0s0.2,0.5,0,0.7l-13,13
			C1.7,14.7,1.6,14.8,1.5,14.8z"/>
	</g>
</g>
</svg>
