<?xml version="1.0" encoding="utf-8"?>
<!-- Generator: Adobe Illustrator 18.1.0, SVG Export Plug-In . SVG Version: 6.00 Build 0)  -->
<!DOCTYPE svg PUBLIC "-//W3C//DTD SVG 1.1//EN" "http://www.w3.org/Graphics/SVG/1.1/DTD/svg11.dtd">
<svg version="1.1" xmlns="http://www.w3.org/2000/svg" xmlns:xlink="http://www.w3.org/1999/xlink" x="0px" y="0px" width="32px"
	 height="32px" viewBox="0 0 32 32" enable-background="new 0 0 32 32" xml:space="preserve">
<g id="grid">
</g>
<g id="goal" display="none">
	<path display="inline" d="M24.1,5.7c2.4,0,5.5-1.3,6.9-2.3v18.6c-1.4,1-4.6,2.3-6.9,2.3s-4.5-0.7-5.9-1.7c-1.4-1-2.8-1.7-5.1-1.7
		c-2.4,0-4.6,1.2-6,2.2V4.5c1.4-1,3.7-2.2,6-2.2c2.4,0,3.7,0.7,5.1,1.7S21.7,5.7,24.1,5.7z M3.1,0.4c1.1,0,2,0.9,2,2V32H1V2.4
		C1,1.3,2,0.4,3.1,0.4z"/>
</g>
<g id="calendar" display="none">
	<path display="inline" d="M24,4V0h-4v4h-8V0H8v4H0v28h32V4H24z M28,28H4V10h24V28z"/>
</g>
<g id="history" display="none">
	<path display="inline" d="M18.4,2.4C25.9,2.4,32,8.5,32,16s-6.1,13.6-13.6,13.6v-2.9c2.9,0,5.5-1.1,7.6-3.1s3.1-4.7,3.1-7.6
		c0-2.9-1.1-5.5-3.1-7.6s-4.7-3.1-7.6-3.1c-2.9,0-5.5,1.1-7.6,3.1c-1.6,1.6-2.6,3.5-3,5.6h5.7l-6.8,7.8l-6.8-7.8h5
		C5.9,7.5,11.6,2.4,18.4,2.4z M24.2,14.1v3.9h-7.8V8.2h3.9v5.8H24.2z"/>
</g>
<g id="settings" display="none">
	<g id="settings_1_" display="inline">
		<path id="settings_2_" d="M30.9,13.5L27.8,13c-0.2-0.9-0.6-1.8-1-2.6l2-2.5c0.4-0.5,0.4-1.3,0-1.8l-1.2-1.4
			c-0.5-0.6-1.3-0.7-1.8-0.3l-2.7,1.7c-1.2-0.8-2.5-1.4-4-1.8l-0.5-3.1C18.5,0.5,17.9,0,17.3,0h-1.9c-0.7,0-1.3,0.5-1.4,1.2
			l-0.5,3.1c-1.2,0.3-2.3,0.8-3.3,1.4L7.6,3.9C7.1,3.5,6.3,3.5,5.8,4L4.5,5.3C4,5.8,4,6.6,4.4,7.1l1.8,2.6c-0.6,1-1.1,2.1-1.4,3.3
			l-3.2,0.5c-0.7,0.1-1.2,0.7-1.2,1.4v1.9c0,0.7,0.5,1.3,1.2,1.4l3.2,0.5c0.2,1,0.6,1.9,1,2.8l-2,2.5c-0.4,0.5-0.4,1.3,0,1.8L5,27.2
			c0.5,0.5,1.2,0.6,1.8,0.3l2.7-1.7c1.1,0.8,2.4,1.4,3.8,1.7l0.5,3.1c0.1,0.7,0.7,1.2,1.4,1.2h1.9c0.7,0,1.3-0.5,1.4-1.2l0.5-3.1
			c1.2-0.3,2.3-0.7,3.3-1.4L25,28c0.5,0.4,1.3,0.3,1.8-0.1l1.3-1.3c0.5-0.5,0.5-1.2,0.1-1.8l-1.9-2.6c0.6-1,1.1-2.1,1.4-3.3l3.1-0.5
			c0.7-0.1,1.2-0.7,1.2-1.4v-1.9C32.1,14.2,31.6,13.6,30.9,13.5z M16.3,21.7c-3.3,0-5.9-2.7-5.9-5.9c0-3.3,2.7-5.9,5.9-5.9
			c3.3,0,5.9,2.7,5.9,5.9C22.3,19.1,19.6,21.7,16.3,21.7z"/>
	</g>
</g>
<g id="archive" display="none">
	<path display="inline" d="M31,0H1C0.5,0,0,0.5,0,1V6h32V1C32,0.5,31.5,0,31,0z M2,29.5C2,30.9,3.1,32,4.5,32h23.1
		c1.3,0,2.5-1.1,2.5-2.5V8H2V29.5z M10,12h12v4H10V12z"/>
</g>
<g id="experiment" display="none">
	<polygon display="inline" points="0,19 0,32 32,32 32,10 22,19 10,14 	"/>
	<polygon display="inline" points="22,12.1 10,7.1 0,12.1 0,10.1 10,5 22,10 32,0.6 32,3.1 	"/>
	<circle display="inline" cx="10" cy="6" r="2"/>
	<circle display="inline" cx="22" cy="11" r="2"/>
</g>
<g id="trash" display="none">
	<rect x="8" y="-0.1" display="inline" width="14" height="2.1"/>
	<rect x="2" y="2" display="inline" width="26" height="6"/>
	<rect x="4" y="10" display="inline" width="22" height="22"/>
</g>
<g id="play" display="none">
	<polygon display="inline" points="4,4 4,28 27.9,16 	"/>
</g>
<g id="pause" display="none">
	<rect x="6" y="4" display="inline" width="8" height="24"/>
	<rect x="18" y="4" display="inline" width="8" height="24"/>
</g>
<g id="duplicate" display="none">
	<path display="inline" d="M22,32H2c-1.1,0-2-0.9-2-2V9.9c0-1.1,0.9-2,2-2h20c1.1,0,2,0.9,2,2V30C24,31.1,23.1,32,22,32z"/>
	<path display="inline" d="M30,0H10C8.9,0,8,0.9,8,2v2h18c1.1,0,2,0.8,2,1.9V24h2c1.1,0,2-0.8,2-1.9V2C32,0.9,31.1,0,30,0z"/>
	<polygon display="inline" fill="#FFFFFF" points="18,18 14,18 14,14 10,14 10,18 6,18 6,22 10,22 10,26 14,26 14,22 18,22 	"/>
</g>
<g id="integrations" display="none">
	<path display="inline" d="M23.5,8.5C22,3.6,17.4,0,12,0C5.4,0,0,5.4,0,12c0,5.4,3.6,10,8.5,11.5C10,28.4,14.6,32,20,32
		c6.6,0,12-5.4,12-12C32,14.6,28.4,10,23.5,8.5z M4,12c0-4.4,3.6-8,8-8c3,0,5.6,1.6,6.9,4.1C13.2,8.6,8.6,13.2,8.1,18.9
		C5.6,17.6,4,15,4,12z M20,12c0,4.4-3.6,8-8,8C12,15.6,15.6,12,20,12z M20,28c-3,0-5.6-1.6-6.9-4.1c5.8-0.5,10.4-5.1,10.9-10.9
		c2.4,1.4,4.1,4,4.1,6.9C28,24.4,24.4,28,20,28z"/>
</g>
<g id="projects" display="none">
	<rect y="2" display="inline" width="4" height="4"/>
	<rect x="8" y="2" display="inline" width="24" height="4"/>
	<rect y="10.1" display="inline" width="4" height="4"/>
	<rect x="8" y="10.1" display="inline" width="24" height="4"/>
	<rect y="18" display="inline" width="4" height="4"/>
	<rect x="8" y="18" display="inline" width="24" height="4"/>
	<rect y="26" display="inline" width="4" height="4"/>
	<rect x="8" y="26" display="inline" width="24" height="4"/>
</g>
<g id="placeholder" display="none">
	<circle display="inline" cx="16" cy="16" r="16"/>
</g>
<g id="close">
	<polygon points="25.9,8.9 23.1,6.1 16,13.2 8.9,6.1 6.1,8.9 13.2,16 6.1,23.1 8.9,25.9 16,18.8 23.1,25.9 25.9,23.1 18.8,16 	"/>
</g>
</svg>
