<?xml version="1.0" encoding="utf-8"?>
<!-- Generator: Adobe Illustrator 18.1.0, SVG Export Plug-In . SVG Version: 6.00 Build 0)  -->
<!DOCTYPE svg PUBLIC "-//W3C//DTD SVG 1.1//EN" "http://www.w3.org/Graphics/SVG/1.1/DTD/svg11.dtd">
<svg version="1.1" xmlns="http://www.w3.org/2000/svg" xmlns:xlink="http://www.w3.org/1999/xlink" x="0px" y="0px" width="32px"
	 height="32px" viewBox="0 0 32 32" enable-background="new 0 0 32 32" xml:space="preserve">
<g id="code">
	<path d="M24,26c-0.3,0-0.6-0.1-0.9-0.2c-1-0.5-1.4-1.7-0.9-2.7l3.6-7.1l-3.6-7.1c-0.5-1-0.1-2.2,0.9-2.7c1-0.5,2.2-0.1,2.7,0.9l4,8
		c0.3,0.6,0.3,1.2,0,1.8l-4,8C25.4,25.6,24.7,26,24,26z"/>
	<path d="M8,26c-0.7,0-1.4-0.4-1.8-1.1l-4-8c-0.3-0.6-0.3-1.2,0-1.8l4-8c0.5-1,1.7-1.4,2.7-0.9c1,0.5,1.4,1.7,0.9,2.7L6.2,16
		l3.6,7.1c0.5,1,0.1,2.2-0.9,2.7C8.6,25.9,8.3,26,8,26z"/>
	<path d="M14,30c-0.1,0-0.2,0-0.3,0c-1.1-0.2-1.8-1.2-1.6-2.3l4-24c0.2-1.1,1.2-1.8,2.3-1.6c1.1,0.2,1.8,1.2,1.6,2.3l-4,24
		C15.8,29.3,15,30,14,30z"/>
</g>
</svg>
