<?xml version="1.0" encoding="utf-8"?>
<!-- Generator: Adobe Illustrator 18.1.0, SVG Export Plug-In . SVG Version: 6.00 Build 0)  -->
<!DOCTYPE svg PUBLIC "-//W3C//DTD SVG 1.1//EN" "http://www.w3.org/Graphics/SVG/1.1/DTD/svg11.dtd">
<svg version="1.1" xmlns="http://www.w3.org/2000/svg" xmlns:xlink="http://www.w3.org/1999/xlink" x="0px" y="0px" width="32px"
	 height="32px" viewBox="0 0 32 32" enable-background="new 0 0 32 32" xml:space="preserve">
<g id="grid">
</g>
<g id="code">
	<g>
		<g>
			<path d="M8,25.4c-0.4,0-0.8-0.2-1.1-0.5l-6.6-7.9c-0.4-0.5-0.4-1.3,0-1.8l6.2-7.9C7,6.6,8,6.4,8.6,6.9c0.6,0.5,0.7,1.4,0.3,2
				L3.3,16L9.1,23c0.5,0.6,0.4,1.5-0.2,2C8.6,25.2,8.3,25.4,8,25.4z"/>
		</g>
		<g>
			<path d="M24,25.4c-0.3,0-0.7-0.1-0.9-0.3c-0.6-0.5-0.7-1.4-0.2-2l5.7-7.1l-5.5-7c-0.5-0.6-0.4-1.5,0.3-2c0.6-0.5,1.5-0.4,2,0.3
				l6.1,7.9c0.4,0.5,0.4,1.3,0,1.8l-6.5,7.9C24.8,25.2,24.4,25.4,24,25.4z"/>
		</g>
		<g>
			<path d="M13.7,27.8c-0.1,0-0.2,0-0.3-0.1c-0.7-0.2-1.2-0.9-1.1-1.7l4.9-20.8C17.4,4.5,18.2,4,19,4.2c0.7,0.2,1.2,0.9,1.1,1.7
				l-4.9,20.8C14.9,27.4,14.3,27.8,13.7,27.8z"/>
		</g>
	</g>
</g>
</svg>
