<?xml version="1.0" encoding="utf-8"?>
<!-- Generator: Adobe Illustrator 18.1.0, SVG Export Plug-In . SVG Version: 6.00 Build 0)  -->
<!DOCTYPE svg PUBLIC "-//W3C//DTD SVG 1.1//EN" "http://www.w3.org/Graphics/SVG/1.1/DTD/svg11.dtd">
<svg version="1.1" xmlns="http://www.w3.org/2000/svg" xmlns:xlink="http://www.w3.org/1999/xlink" x="0px" y="0px" width="32px"
	 height="32px" viewBox="0 0 32 32" enable-background="new 0 0 32 32" xml:space="preserve">
<g id="grid">
</g>
<g id="collaborators">
	<circle cx="9" cy="7" r="5"/>
	<circle cx="23" cy="7" r="5"/>
	<path d="M32,32c0-0.1,0-0.1,0-0.2L28,16c0-1.1-0.9-2-2-2h-6c-1.1,0-2,0.9-2,2v15.8c0,0.1,0,0.1,0,0.2H32z"/>
	<path d="M13.9,32c0,0,0.1-0.2,0.1-0.2V15.9c0-1.1-1-1.9-2.1-1.9h-6C4.8,14,4,14.8,4,15.9L0,31.8C0,31.8-0.1,32-0.1,32H13.9z"/>
</g>
</svg>
