<?xml version="1.0" encoding="utf-8"?>
<!-- Generator: Adobe Illustrator 18.1.0, SVG Export Plug-In . SVG Version: 6.00 Build 0)  -->
<!DOCTYPE svg PUBLIC "-//W3C//DTD SVG 1.1//EN" "http://www.w3.org/Graphics/SVG/1.1/DTD/svg11.dtd">
<svg version="1.1" xmlns="http://www.w3.org/2000/svg" xmlns:xlink="http://www.w3.org/1999/xlink" x="0px" y="0px" width="32px"
	 height="32px" viewBox="0 0 32 32" enable-background="new 0 0 32 32" xml:space="preserve">
<g id="collaborators">
	<g>
		<path d="M9.1,12C5.5,12,2,17.3,2,21v5.4c0,0,4.8,1.6,9,1.6c4.9,0,5-2,5-2h0V16c0-1.3-0.1-2.4-0.6-3.1C14.9,12.2,14,12,13.5,12H9.1
			z"/>
	</g>
	<circle cx="11" cy="7" r="5"/>
	<g>
		<path d="M24.9,12c3.7,0,7.1,5.3,7.1,9v5.4c0,0-4.8,1.6-9,1.6c-4.9,0-5-2-5-2h0V16c0-1.3,0.1-2.4,0.6-3.1c0.5-0.7,1.4-0.9,1.8-0.9
			H24.9z"/>
	</g>
	<circle cx="23" cy="7" r="5"/>
</g>
</svg>
