<?xml version="1.0" encoding="utf-8"?>
<!-- Generator: Adobe Illustrator 18.1.0, SVG Export Plug-In . SVG Version: 6.00 Build 0)  -->
<!DOCTYPE svg PUBLIC "-//W3C//DTD SVG 1.1//EN" "http://www.w3.org/Graphics/SVG/1.1/DTD/svg11.dtd">
<svg version="1.1" xmlns="http://www.w3.org/2000/svg" xmlns:xlink="http://www.w3.org/1999/xlink" x="0px" y="0px" width="32px"
	 height="32px" viewBox="0 0 32 32" enable-background="new 0 0 32 32" xml:space="preserve">
<g id="grid">
</g>
<g id="dimensions">
	<path fill="#FFFFFF" d="M17,2L2,8l14.9,6L32,7.9L17,2L17,2z"/>
	<polygon points="16,30 2,24 2,10 16,16 	"/>
	<path d="M30,12.6v9.8l-10,4.9v-9.8L30,12.6 M32,9.9l-14,6v14l14-6V9.9L32,9.9z"/>
	<path fill="#FFFFFF" d="M30,12.6v9.8l-10,4.9v-9.8L30,12.6"/>
	<path fill="none" stroke="#000000" stroke-width="2" stroke-miterlimit="10" d="M30,8"/>
	<path fill="none" stroke="#000000" stroke-width="2" stroke-miterlimit="10" d="M4,8"/>
	<path d="M17,4.1L27.2,8l-10.3,4L6.7,8L17,4.1 M17,2L2,8l14.9,6L32,7.9L17,2L17,2z"/>
</g>
</svg>
