<?xml version="1.0" encoding="utf-8"?>
<!-- Generator: Adobe Illustrator 18.1.0, SVG Export Plug-In . SVG Version: 6.00 Build 0)  -->
<!DOCTYPE svg PUBLIC "-//W3C//DTD SVG 1.1//EN" "http://www.w3.org/Graphics/SVG/1.1/DTD/svg11.dtd">
<svg version="1.1" xmlns="http://www.w3.org/2000/svg" xmlns:xlink="http://www.w3.org/1999/xlink" x="0px" y="0px" width="32px"
	 height="32px" viewBox="0 0 32 32" enable-background="new 0 0 32 32" xml:space="preserve">
<g id="duplicate">
	<path d="M22,32H2c-1.1,0-2-0.9-2-2V9.9c0-1.1,0.9-2,2-2h20c1.1,0,2,0.9,2,2V30C24,31.1,23.1,32,22,32z"/>
	<path d="M30,0H10C8.9,0,8,0.9,8,2v2h18c1.1,0,2,0.8,2,1.9V24h2c1.1,0,2-0.8,2-1.9V2C32,0.9,31.1,0,30,0z"/>
	<polygon fill="#FFFFFF" points="18,18 14,18 14,14 10,14 10,18 6,18 6,22 10,22 10,26 14,26 14,22 18,22 	"/>
</g>
</svg>
