<?xml version="1.0" encoding="utf-8"?>
<!-- Generator: Adobe Illustrator 18.0.0, SVG Export Plug-In . SVG Version: 6.00 Build 0)  -->
<!DOCTYPE svg PUBLIC "-//W3C//DTD SVG 1.1//EN" "http://www.w3.org/Graphics/SVG/1.1/DTD/svg11.dtd">
<svg version="1.1" id="Layer_1" xmlns="http://www.w3.org/2000/svg" xmlns:xlink="http://www.w3.org/1999/xlink" x="0px" y="0px"
	 viewBox="0 0 16 16" enable-background="new 0 0 16 16" xml:space="preserve">
<g>
	<g>
		<g>
			<path fill="#FFFFFF" d="M10.2,7.4v-2c0-1.7-1.4-3-3-3H6.6c-1.6,0-3,1.3-3,3v2c0,1.7,1.4,3,3,3h0.6C8.8,10.4,10.2,9.1,10.2,7.4z"
				/>
			<path d="M9.9,10.9h-6c-0.5,0-0.9-0.4-0.9-0.9V2.8c0-0.5,0.4-0.9,0.9-0.9h6c0.5,0,0.9,0.4,0.9,0.9v7.3
				C10.7,10.6,10.3,10.9,9.9,10.9z M4.1,9.9h5.5V3H4.1V9.9z"/>
		</g>
		<g>
			<path fill="#FFFFFF" d="M12.3,10.5v-2c0-1.7-1.3-3-3-3H8.7c-1.6,0-3,1.4-3,3v2c0,1.6,1.3,3,3,3h0.6
				C10.9,13.5,12.3,12.2,12.3,10.5z"/>
			<path d="M12,14.1H6c-0.5,0-0.9-0.4-0.9-0.9V5.9C5.1,5.4,5.5,5,6,5h6c0.5,0,0.9,0.4,0.9,0.9v7.3C12.8,13.7,12.4,14.1,12,14.1z
				 M6.2,13h5.5V6.1H6.2V13z"/>
		</g>
	</g>
	<g>
		<path d="M15.2,6.6l-1-0.3c0.2-0.7,0-1.3-0.4-1.8c-0.5-0.5-1.3-0.6-2-0.3l-0.4-1c1.1-0.5,2.3-0.3,3.1,0.4
			C15.2,4.4,15.5,5.5,15.2,6.6z"/>
		<g>
			<polygon points="13.7,5.3 13.6,8 16,6.8 			"/>
		</g>
	</g>
	<g>
		<path d="M3.2,13c-0.8,0-1.6-0.3-2.2-1c-1.1-1.2-1.3-3-0.6-4.5l1,0.5C0.8,9.1,1,10.4,1.8,11.3c0.6,0.6,1.4,0.8,2.3,0.4l0.4,1
			C4,12.9,3.6,13,3.2,13z"/>
		<g>
			<polygon points="1.8,8.9 2.1,6.2 -0.4,7.2 			"/>
		</g>
	</g>
</g>
</svg>
