<?xml version="1.0" encoding="utf-8"?>
<!-- Generator: Adobe Illustrator 18.1.0, SVG Export Plug-In . SVG Version: 6.00 Build 0)  -->
<svg version="1.1" id="Layer_1" xmlns="http://www.w3.org/2000/svg" xmlns:xlink="http://www.w3.org/1999/xlink" x="0px" y="0px"
	 viewBox="0 0 960 560" enable-background="new 0 0 960 560" xml:space="preserve">
<g>
	<path d="M620,493.5H410c-17.5,0-31.5-14-31.5-31.5V206.5c0-17.5,14-31.5,31.5-31.5h210c17.5,0,31.5,14,31.5,31.5V462
		C648,479.5,634,493.5,620,493.5z M417,455h192.5V213.5H417V455z"/>
</g>
<path d="M676,280l84-42l-25.8-16.8c6.4-35.2-4.3-69.6-26.7-95.2c-28-24.5-70-31.5-108.5-14l14,35c24.5-10.5,52.5-7,70,10.5
	c9.6,12.1,16,25.8,16.7,41.2l-20.2-13.2L676,280z"/>
<path d="M343.5,409.5c-31.5,14-59.5,7-80.5-14c-24.3-27.4-32.8-65.3-20.8-100.1l20.8,16.1l10.5-94.5L186,252l24.4,18.9
	C190.3,321.6,198.5,380.2,235,420c21,24.5,49,35,77,35c14,0,28-3.5,45.5-10.5L343.5,409.5z"/>
<path d="M401.3,346.5h-57.8V105H536v101.7h42V98c0-17.5-14-31.5-31.5-31.5h-210C319,66.5,305,80.5,305,98v252
	c0,17.5,14,31.5,31.5,31.5h64.8V346.5z"/>
</svg>
