<?xml version="1.0" encoding="utf-8"?>
<!-- Generator: Adobe Illustrator 18.1.0, SVG Export Plug-In . SVG Version: 6.00 Build 0)  -->
<svg version="1.1" id="Layer_1" xmlns="http://www.w3.org/2000/svg" xmlns:xlink="http://www.w3.org/1999/xlink" x="0px" y="0px"
	 viewBox="-752 644.1 31 30.9" enable-background="new -752 644.1 31 30.9" xml:space="preserve">
<g id="external">
	<path d="M-726,644.9c0-0.2-0.1-0.4-0.2-0.6c-0.2-0.2-0.3-0.2-0.6-0.2l-7.6,0.1c-0.3,0-0.6,0.2-0.7,0.5c-0.1,0.2-0.1,0.6,0.1,0.8
		l7.6,7.7c0.2,0.2,0.5,0.2,0.8,0.1c0.3-0.2,0.5-0.4,0.5-0.7L-726,644.9"/>
	<path d="M-740.8,656.8l2.2,2.2l11.1-11.1l-2.2-2.2L-740.8,656.8"/>
	<polygon points="-731.2,658.1 -731.2,666.9 -748.8,666.9 -748.8,649.3 -740,649.3 -740,646.1 -752,646.1 -752,670.1 -728,670.1 
		-728,658.1 	"/>
</g>
</svg>
