<?xml version="1.0" encoding="utf-8"?>
<!-- Generator: Adobe Illustrator 18.1.0, SVG Export Plug-In . SVG Version: 6.00 Build 0)  -->
<svg version="1.1" xmlns="http://www.w3.org/2000/svg" xmlns:xlink="http://www.w3.org/1999/xlink" x="0px" y="0px" width="32px"
	 viewBox="-463 263 34 34" enable-background="new -463 263 34 34" xml:space="preserve">
<g id="external">
  <path d="M-430.1,265.2c0-0.3-0.1-0.5-0.3-0.7c-0.2-0.2-0.4-0.3-0.7-0.3l-9.6,0.1
	c-0.4,0-0.8,0.2-0.9,0.6c-0.1,0.3-0.1,0.7,0.1,1l9.6,9.7c0.3,0.2,0.6,0.3,1,0.1c0.4-0.2,0.6-0.5,0.6-0.9L-430.1,265.2"/>
  <path d="M-448.8,280.2l2.8,2.8l14.1-14.1l-2.8-2.8L-448.8,280.2"/>
  <polygon points="-437,282 -437,293 -459,293 -459,271 -448,271 -448,267 -463,267 -463,297 -433,297 -433,282 "/>
</g>
</svg>
