<?xml version="1.0" encoding="utf-8"?>
<!-- Generator: Adobe Illustrator 18.1.0, SVG Export Plug-In . SVG Version: 6.00 Build 0)  -->
<!DOCTYPE svg PUBLIC "-//W3C//DTD SVG 1.1//EN" "http://www.w3.org/Graphics/SVG/1.1/DTD/svg11.dtd">
<svg version="1.1" xmlns="http://www.w3.org/2000/svg" xmlns:xlink="http://www.w3.org/1999/xlink" x="0px" y="0px" width="32px"
	 height="32px" viewBox="0 0 32 32" enable-background="new 0 0 32 32" xml:space="preserve">
<g id="grid" display="none">
</g>
<g id="goal">
	<path d="M2,0.1C3,0.1,4,1,4,2V32H0V2C0,1,0.9,0.1,2,0.1z"/>
	<path d="M25,6.2c2.4,0,5.5-1.3,6.9-2.3v18.6c-1.4,1-4.6,2.3-6.9,2.3s-4.5-0.7-5.9-1.7c-1.4-1-2.8-1.7-5.1-1.7c-2.4,0-4.5,1.5-6,2.5
		V5.3c1.4-1,3.6-2.5,6-2.5c2.4,0,3.7,0.7,5.1,1.7S22.6,6.2,25,6.2z"/>
</g>
</svg>
