<?xml version="1.0" encoding="utf-8"?>
<!-- Generator: Adobe Illustrator 18.1.0, SVG Export Plug-In . SVG Version: 6.00 Build 0)  -->
<!DOCTYPE svg PUBLIC "-//W3C//DTD SVG 1.1//EN" "http://www.w3.org/Graphics/SVG/1.1/DTD/svg11.dtd">
<svg version="1.1" xmlns="http://www.w3.org/2000/svg" xmlns:xlink="http://www.w3.org/1999/xlink" x="0px" y="0px" width="32px"
	 height="32px" viewBox="0 0 32 32" enable-background="new 0 0 32 32" xml:space="preserve">
<g id="grid">
</g>
<g id="goal">
	<path d="M24.1,5.7c2.4,0,5.5-1.3,6.9-2.3v18.6c-1.4,1-4.6,2.3-6.9,2.3s-4.5-0.7-5.9-1.7c-1.4-1-2.8-1.7-5.1-1.7
		c-2.4,0-4.6,1.2-6,2.2V4.5c1.4-1,3.7-2.2,6-2.2c2.4,0,3.7,0.7,5.1,1.7S21.7,5.7,24.1,5.7z M3.1,0.4c1.1,0,2,0.9,2,2V32H1V2.4
		C1,1.3,2,0.4,3.1,0.4z"/>
</g>
</svg>
