<?xml version="1.0" encoding="utf-8"?>
<!-- Generator: Adobe Illustrator 18.1.0, SVG Export Plug-In . SVG Version: 6.00 Build 0)  -->
<!DOCTYPE svg PUBLIC "-//W3C//DTD SVG 1.1//EN" "http://www.w3.org/Graphics/SVG/1.1/DTD/svg11.dtd">
<svg version="1.1" xmlns="http://www.w3.org/2000/svg" xmlns:xlink="http://www.w3.org/1999/xlink" x="0px" y="0px" width="32px"
	 height="32px" viewBox="0 0 32 32" enable-background="new 0 0 32 32" xml:space="preserve">
<g id="history">
	<g>
		<path d="M18,2C10.9,2,5.1,7.2,4.2,14H0l6,6l6-6H7.2C8.1,8.9,12.6,5,18,5c6.1,0,11,4.9,11,11s-4.9,11-11,11c-4,0-7.6-2.2-9.5-5.5
			l-2.2,2.2C8.8,27.5,13.1,30,18,30c7.7,0,14-6.3,14-14S25.7,2,18,2z"/>
		<rect x="16" y="8" width="4" height="8"/>
		<polygon points="20.9,23.9 24,22 20,16 16,16 		"/>
	</g>
</g>
</svg>
