<?xml version="1.0" encoding="utf-8"?>
<!-- Generator: Adobe Illustrator 19.1.0, SVG Export Plug-In . SVG Version: 6.00 Build 0)  -->
<!DOCTYPE svg PUBLIC "-//W3C//DTD SVG 1.1 Tiny//EN" "http://www.w3.org/Graphics/SVG/1.1/DTD/svg11-tiny.dtd">
<svg version="1.1" baseProfile="tiny" id="Layer_1" xmlns="http://www.w3.org/2000/svg" xmlns:xlink="http://www.w3.org/1999/xlink"
	 x="0px" y="0px" viewBox="0 0 16 16" xml:space="preserve">
<g id="XMLID_38_">
	<path d="M3,9.1C3,9.1,2.9,9.1,3,9.1C2.8,9.1,2.7,9,2.6,8.9L0.7,6C0.6,5.8,0.6,5.6,0.8,5.4C1,5.3,1.2,5.4,1.3,5.5L3,8.1l2-2.2
		c0.1-0.2,0.4-0.2,0.5,0c0.2,0.1,0.2,0.4,0,0.5L3.2,8.9C3.2,9,3.1,9.1,3,9.1z"/>
</g>
<g id="XMLID_37_">
	<path d="M9.4,14.3c-0.2,0-0.4-0.2-0.4-0.4c0-0.2,0.2-0.4,0.4-0.4c1.6-0.1,3-0.7,4.1-1.9c1.1-1.1,1.6-2.6,1.6-4.2
		c-0.1-3.2-2.8-5.7-6-5.6C7.3,1.9,5.8,2.7,4.7,4C3.6,5.3,3.1,6.9,3.3,8.6C3.4,8.8,3.2,9,3,9.1c-0.2,0-0.4-0.1-0.4-0.3
		C2.4,6.8,2.9,4.9,4.1,3.5c1.2-1.4,3-2.3,4.8-2.4c3.6-0.1,6.7,2.7,6.8,6.3c0.1,1.8-0.6,3.4-1.8,4.7C12.8,13.5,11.2,14.2,9.4,14.3
		C9.4,14.3,9.4,14.3,9.4,14.3z"/>
</g>
<g id="XMLID_36_">
	<path d="M12,8H9.5C9.2,8,9,7.8,9,7.5V4c0-0.3,0.2-0.5,0.5-0.5S10,3.7,10,4v3h2c0.3,0,0.5,0.2,0.5,0.5S12.3,8,12,8z"/>
</g>
</svg>
