<?xml version="1.0" encoding="utf-8"?>
<!-- Generator: Adobe Illustrator 19.1.0, SVG Export Plug-In . SVG Version: 6.00 Build 0)  -->
<!DOCTYPE svg PUBLIC "-//W3C//DTD SVG 1.1 Tiny//EN" "http://www.w3.org/Graphics/SVG/1.1/DTD/svg11-tiny.dtd">
<svg version="1.1" baseProfile="tiny" id="Layer_1" xmlns="http://www.w3.org/2000/svg" xmlns:xlink="http://www.w3.org/1999/xlink"
	 x="0px" y="0px" viewBox="0 0 16 16" xml:space="preserve">
<g id="XMLID_44_">
	<path d="M8,15.9c-4.3,0-7.9-3.5-7.9-7.9S3.7,0.1,8,0.1s7.9,3.5,7.9,7.9S12.3,15.9,8,15.9z M8,0.9C4.1,0.9,0.9,4.1,0.9,8
		s3.2,7.1,7.1,7.1s7.1-3.2,7.1-7.1S11.9,0.9,8,0.9z"/>
</g>
<g id="XMLID_41_">
	<path d="M11.9,11.3c-0.1,0-0.2,0-0.3-0.1L8.9,9.5c-0.1-0.1-0.1-0.4,0-0.5s0.4-0.1,0.5,0l2.7,1.7c0.1,0.1,0.1,0.4,0,0.5
		C12.1,11.3,12,11.3,11.9,11.3z"/>
</g>
<g id="XMLID_39_">
	<path d="M8.5,9.5C8.2,9.5,8,9.3,8,9V4c0-0.3,0.2-0.5,0.5-0.5S9,3.7,9,4v5C9,9.3,8.8,9.5,8.5,9.5z"/>
</g>
</svg>
