<?xml version="1.0" encoding="utf-8"?>
<!-- Generator: Adobe Illustrator 18.1.0, SVG Export Plug-In . SVG Version: 6.00 Build 0)  -->
<!DOCTYPE svg PUBLIC "-//W3C//DTD SVG 1.1//EN" "http://www.w3.org/Graphics/SVG/1.1/DTD/svg11.dtd">
<svg version="1.1" xmlns="http://www.w3.org/2000/svg" xmlns:xlink="http://www.w3.org/1999/xlink" x="0px" y="0px" width="32px"
	 height="32px" viewBox="0 0 32 32" enable-background="new 0 0 32 32" xml:space="preserve">
<g id="integrations">
	<path d="M25.5,9.3c0.1,0.4,0.2,0.8,0.2,1.2c0.1,0.8,0,1.8-0.1,2.5c2.1,1.7,3.4,4.2,3.4,7c0,5-4,9-9,9s-9-4-9-9
		c0-4.6,3.4-8.3,7.8-8.9c0-0.4-0.1-1.1-0.4-1.9c-0.2-0.4-0.3-0.8-0.5-1C12.3,9.2,8,14.1,8,20c0,6.6,5.4,12,12,12c6.6,0,12-5.4,12-12
		C32,15.4,29.4,11.3,25.5,9.3z"/>
	<path d="M12,0C5.4,0,0,5.4,0,12c0,4.4,2.4,8.3,6,10.4c-0.1-0.8-0.2-1.6-0.2-2c0-0.4,0.1-1.2,0.2-1.7C4.1,17,3,14.6,3,12
		c0-5,4-9,9-9s9,4,9,9c0,4.5-3.3,8.3-7.7,8.9c0,0.5,0,0.9,0.3,1.5c0.3,0.7,0.4,1,0.7,1.3c5.5-1.1,9.6-6,9.6-11.8C24,5.4,18.6,0,12,0
		z"/>
</g>
</svg>
