<?xml version="1.0" encoding="utf-8"?>
<!-- Generator: Adobe Illustrator 18.1.0, SVG Export Plug-In . SVG Version: 6.00 Build 0)  -->
<!DOCTYPE svg PUBLIC "-//W3C//DTD SVG 1.1//EN" "http://www.w3.org/Graphics/SVG/1.1/DTD/svg11.dtd">
<svg version="1.1" xmlns="http://www.w3.org/2000/svg" xmlns:xlink="http://www.w3.org/1999/xlink" x="0px" y="0px" width="32px"
	 height="32px" viewBox="0 0 32 32" enable-background="new 0 0 32 32" xml:space="preserve">
<g id="grid">
</g>
<g id="live-variables">
	<path d="M30,0h-6c-1.1,0-2,0.9-2,2s0.9,2,2,2h4v24h-4c-1.1,0-2,0.9-2,2s0.9,2,2,2h6c1.1,0,2-0.9,2-2V2C32,0.9,31.1,0,30,0z"/>
	<path d="M2,32h6c1.1,0,2-0.9,2-2s-0.9-2-2-2H4V4h4c1.1,0,2-0.9,2-2S9.1,0,8,0H2C0.9,0,0,0.9,0,2l0,28C0,31.1,0.9,32,2,32z"/>
	<path d="M22.2,20.7c-0.2,0-0.6,0.1-0.7,0.1c-1.1,0-3.1-0.5-3.9-3.9l5.8-5.9c0,0,1.2-1.2,0.4-2.3c-0.3-0.6-1.8-1-2.6-0.2l-4.3,4.3
		C15,8.4,11.1,8,9.7,8S8,9.8,8,10.8c0,1,0.9,2.1,2.2,2.2s3.2-0.2,4.1,3.2l-5.6,5.3c-0.3,0.3-0.5,0.6-0.5,1.1c0,0.5,0.2,0.8,0.5,1.1
		C9,24.1,9.5,24,10,24c0.5,0,0.9,0,1.4-0.4l3.8-4.1c1.9,4.2,5.3,4.5,6.7,4.5c0,0,2.1-0.1,2.1-2C24,20.8,23,20.7,22.2,20.7z"/>
</g>
</svg>
