<?xml version="1.0" encoding="utf-8"?>
<!-- Generator: Adobe Illustrator 18.1.0, SVG Export Plug-In . SVG Version: 6.00 Build 0)  -->
<!DOCTYPE svg PUBLIC "-//W3C//DTD SVG 1.1//EN" "http://www.w3.org/Graphics/SVG/1.1/DTD/svg11.dtd">
<svg version="1.1" xmlns="http://www.w3.org/2000/svg" xmlns:xlink="http://www.w3.org/1999/xlink" x="0px" y="0px" width="32px"
	 height="32px" viewBox="0 0 32 32" enable-background="new 0 0 32 32" xml:space="preserve">
<g id="live-variables">
	<path d="M28,2h-4c-1.1,0-2,0.9-2,2s0.9,2,2,2h2v20h-2c-1.1,0-2,0.9-2,2s0.9,2,2,2h4c1.1,0,2-0.9,2-2V4C30,2.9,29.1,2,28,2z"/>
	<path d="M4,30h4c1.1,0,2-0.9,2-2s-0.9-2-2-2H6V6h2c1.1,0,2-0.9,2-2S9.1,2,8,2H4C2.9,2,2,2.9,2,4v24C2,29.1,2.9,30,4,30z"/>
	<path d="M21.1,20.3c-0.1,0-0.3,0-0.4,0.1c0,0-0.1,0-0.2,0c-0.9,0-2.6-0.4-3.4-3.4l4.7-4.7c0.9-0.6,0.9-1.7,0.6-2.2l-0.1-0.1
		c-0.6-0.6-1.5-0.6-2.1,0l-3.7,3.7c-1.7-3.7-4.8-4-5.8-4c-0.3,0-0.4,0-0.4,0c-0.9,0-1.5,1.1-1.5,1.9c0,0.9,0.9,1.5,1.8,1.5h0.1
		c1,0,2.7,0.2,3.5,3.1l-4.8,4.7c-0.3,0.3-0.4,0.6-0.4,1c0,0.4,0.2,0.7,0.4,1c0.3,0.3,0.7,0.3,1.2,0.3s0.8,0,1.2-0.4l3.3-3.6
		c1.6,3.6,4.5,3.8,5.8,3.8h0.4c0.4,0,0.8,0,1.1-0.4c0.3-0.4,0.3-0.8,0.2-1.2C22.2,20.7,21.7,20.3,21.1,20.3z"/>
</g>
</svg>
