<?xml version="1.0" encoding="utf-8"?>
<!-- Generator: Adobe Illustrator 18.1.0, SVG Export Plug-In . SVG Version: 6.00 Build 0)  -->
<svg version="1.1" id="Layer_1" xmlns="http://www.w3.org/2000/svg" xmlns:xlink="http://www.w3.org/1999/xlink" x="0px" y="0px"
	 viewBox="-463 265 32 32" enable-background="new -463 265 32 32" xml:space="preserve">
<g id="grid">
</g>
<path fill="#FFFFFF" d="M-437,277c0-5.5-4.5-10-10-10s-10,4.5-10,10c-1.2,0-2,0.9-2,2v16c0,1.1,0.8,2,1.9,2h20c1.1,0,2-0.9,2-2v-16
	C-435,277.9-435.9,277-437,277z M-445,288.4v2.6c0,1.1-0.9,2-2,2s-2-0.9-2-2v-2.6c-1.2-0.6-2-1.9-2-3.4c0-2.2,1.8-4,4-4s4,1.8,4,4
	C-443,286.5-444,287.7-445,288.4z M-441.1,277h-2h-2h-4h-2h-3c0-3.9,3.1-7,7-7c3.9,0,7,3.1,7,7H-441.1z"/>
</svg>
