<?xml version="1.0" encoding="utf-8"?>
<!-- Generator: Adobe Illustrator 18.1.0, SVG Export Plug-In . SVG Version: 6.00 Build 0)  -->
<!DOCTYPE svg PUBLIC "-//W3C//DTD SVG 1.1//EN" "http://www.w3.org/Graphics/SVG/1.1/DTD/svg11.dtd">
<svg version="1.1" xmlns="http://www.w3.org/2000/svg" xmlns:xlink="http://www.w3.org/1999/xlink" x="0px" y="0px" width="32px"
	 height="32px" viewBox="0 0 32 32" enable-background="new 0 0 32 32" xml:space="preserve">
<g id="grid">
</g>
<g id="lock">
	<path d="M26,12L26,12c0-5.5-4.5-10-10-10c-5.5,0-10,4.5-10,10h0C4.8,12,4,12.9,4,14v16c0,1.1,0.8,2,1.9,2h20c1.1,0,2-0.9,2-2V14
		C28,12.9,27.1,12,26,12z M21.9,12h-2h-2h-4h-2h-3c0-3.9,3.1-7,7-7c3.9,0,7,3.1,7,7H21.9z"/>
	<path fill="#FFFFFF" d="M20,20c0-2.2-1.8-4-4-4s-4,1.8-4,4c0,1.5,0.8,2.8,2,3.4V26c0,1.1,0.9,2,2,2h0c1.1,0,2-0.9,2-2v-2.6
		C19,22.7,20,21.5,20,20z"/>
</g>
</svg>
