<?xml version="1.0" encoding="utf-8"?>
<!-- Generator: Adobe Illustrator 18.1.0, SVG Export Plug-In . SVG Version: 6.00 Build 0)  -->
<!DOCTYPE svg PUBLIC "-//W3C//DTD SVG 1.1//EN" "http://www.w3.org/Graphics/SVG/1.1/DTD/svg11.dtd">
<svg version="1.1" xmlns="http://www.w3.org/2000/svg" xmlns:xlink="http://www.w3.org/1999/xlink" x="0px" y="0px" width="32px"
	 height="32px" viewBox="0 0 32 32" enable-background="new 0 0 32 32" xml:space="preserve">
<g id="grid">
</g>
<g id="code">
	<path d="M15.6,32c-4.1,0-8.2-2.4-8.2-7V6.8c0-4.5,2.9-6.8,5.8-6.8S19,2.4,19,6.8v15.8c0,2.6-1.7,3.9-3.4,3.9c-0.9,0-1.8-0.4-2.4-1
		c-0.5-0.5-1-1.4-1-2.9V8c0-0.6,0.4-1,1-1s1,0.4,1,1v14.6c0,1.3,0.7,1.9,1.4,1.9s1.4-0.6,1.4-1.9V6.8C17,3.5,15,2,13.2,2
		S9.3,3.5,9.3,6.8V25c0,3.4,3.2,5,6.2,5c3,0,6.2-1.6,6.2-5V8c0-0.6,0.4-1,1-1s1,0.4,1,1v17C23.8,29.6,19.7,32,15.6,32z"/>
</g>
</svg>
