<?xml version="1.0" encoding="utf-8"?>
<!-- Generator: Adobe Illustrator 19.1.0, SVG Export Plug-In . SVG Version: 6.00 Build 0)  -->
<!DOCTYPE svg PUBLIC "-//W3C//DTD SVG 1.1 Tiny//EN" "http://www.w3.org/Graphics/SVG/1.1/DTD/svg11-tiny.dtd">
<svg version="1.1" baseProfile="tiny" id="Layer_1" xmlns="http://www.w3.org/2000/svg" xmlns:xlink="http://www.w3.org/1999/xlink"
	 x="0px" y="0px" viewBox="0 0 16 16" xml:space="preserve">
<g>
	<g>
		<path d="M15.5,16h-15C0.2,16,0,15.8,0,15.5v-6C0,9.2,0.2,9,0.5,9H5c0.3,0,0.5,0.2,0.5,0.5S5.3,10,5,10H1v5h14v-5h-2
			c-0.3,0-0.5-0.2-0.5-0.5S12.7,9,13,9h2.5C15.8,9,16,9.2,16,9.5v6C16,15.8,15.8,16,15.5,16z"/>
	</g>
	<g>
		<g>
			<path d="M5.5,13.1c-0.1,0-0.3-0.1-0.4-0.1C5,12.8,5,12.6,5.1,12.4l1.4-3.2C6.5,9.1,6.5,9,6.6,9l5.8-5.8C12.5,3,12.8,3,13,3.2
				l1.8,1.8c0.2,0.2,0.2,0.5,0,0.7l-5.8,5.8c0,0-0.1,0.1-0.2,0.1L5.7,13C5.7,13.1,5.6,13.1,5.5,13.1z M7.3,9.6l-0.9,2l2-0.9l5.3-5.3
				l-1.1-1.1L7.3,9.6z"/>
		</g>
		<g>
			<path d="M13.3,7.1c-0.1,0-0.3,0-0.4-0.1l-1.8-1.8c-0.2-0.2-0.2-0.5,0-0.7s0.5-0.2,0.7,0l1.8,1.8c0.2,0.2,0.2,0.5,0,0.7
				C13.6,7.1,13.5,7.1,13.3,7.1z"/>
		</g>
		<g>
			<path d="M8.8,11.7c-0.1,0-0.3,0-0.4-0.1L6.6,9.7C6.4,9.5,6.4,9.2,6.6,9c0.2-0.2,0.5-0.2,0.7,0l1.8,1.8c0.2,0.2,0.2,0.5,0,0.7
				C9,11.6,8.9,11.7,8.8,11.7z"/>
		</g>
	</g>
</g>
</svg>
