<?xml version="1.0" encoding="utf-8"?>
<!-- Generator: Adobe Illustrator 18.1.0, SVG Export Plug-In . SVG Version: 6.00 Build 0)  -->
<svg version="1.1" id="Layer_1" xmlns:sketch="http://www.bohemiancoding.com/sketch/ns"
	 xmlns="http://www.w3.org/2000/svg" xmlns:xlink="http://www.w3.org/1999/xlink" x="0px" y="0px" viewBox="-471 274 16 14"
	 enable-background="new -471 274 16 14" xml:space="preserve">
<g id="Page-1" sketch:type="MSPage">
	
		<g id="Imported-Layers-10" transform="translate(8.000000, 7.000000) scale(-1, 1) translate(-8.000000, -7.000000) " sketch:type="MSLayerGroup">
		<path id="Fill-1" sketch:type="MSShapeGroup" d="M471.7,279l3.7,3.6c0.2,0.2,0.4,0.2,0.6,0.1c0.2-0.1,0.3-0.2,0.3-0.4l0-7.4
			c0-0.2-0.1-0.4-0.3-0.4c-0.2-0.1-0.4,0-0.6,0.1l-3.7,3.6c-0.1,0.1-0.2,0.2-0.2,0.4C471.6,278.7,471.6,278.8,471.7,279"/>
		<path id="Fill-2" sketch:type="MSShapeGroup" d="M481.9,277.8H473v1.6h8.9c1.7,0,3,1.3,3,3v0.4c0,1.6-1.4,3-3,3c0,0-1.7,0-1.8,0
			c-0.4,0-0.8,0.3-0.8,0.8c0,0.4,0.4,0.8,0.8,0.8h1.8c2.6,0,4.6-2,4.6-4.5v-0.4C486.6,279.8,484.5,277.8,481.9,277.8"/>
	</g>
</g>
</svg>
