<?xml version="1.0" encoding="utf-8"?>
<!-- Generator: Adobe Illustrator 19.1.0, SVG Export Plug-In . SVG Version: 6.00 Build 0)  -->
<!DOCTYPE svg PUBLIC "-//W3C//DTD SVG 1.1 Tiny//EN" "http://www.w3.org/Graphics/SVG/1.1/DTD/svg11-tiny.dtd">
<svg version="1.1" baseProfile="tiny" id="Layer_1" xmlns="http://www.w3.org/2000/svg" xmlns:xlink="http://www.w3.org/1999/xlink"
	 x="0px" y="0px" viewBox="0 0 16 16" xml:space="preserve">
<g id="XMLID_60_">
	<path d="M9,14.8c-2.3,0-4.4-1.1-5.7-3.1c-0.1-0.2-0.1-0.4,0.1-0.5c0.2-0.1,0.4-0.1,0.5,0.1c1.2,1.8,3.2,2.9,5.4,2.8
		c1.6-0.1,3.2-0.8,4.3-2c1.1-1.2,1.7-2.8,1.6-4.4c-0.1-3.4-3-6-6.3-5.9C7.1,1.9,5.4,2.7,4.3,4c-1,1.1-1.5,2.6-1.5,4.1L4.7,6
		C4.8,5.9,5,5.9,5.2,6c0.1,0.1,0.2,0.3,0,0.5L2.8,9.2C2.7,9.3,2.6,9.4,2.5,9.4c-0.1,0-0.2-0.1-0.3-0.2l-2-3.1C0.1,6,0.1,5.7,0.3,5.6
		c0.2-0.1,0.4-0.1,0.5,0.1l1.4,2.1c0.1-1.6,0.6-3.1,1.6-4.2c1.2-1.5,3.1-2.3,5-2.4C12.5,1,15.7,4,15.8,7.7c0.1,1.8-0.6,3.6-1.8,4.9
		c-1.2,1.3-2.9,2.1-4.8,2.2C9.2,14.8,9.1,14.8,9,14.8z"/>
</g>
</svg>
