<?xml version="1.0" encoding="utf-8"?>
<!-- Generator: Adobe Illustrator 18.1.0, SVG Export Plug-In . SVG Version: 6.00 Build 0)  -->
<!DOCTYPE svg PUBLIC "-//W3C//DTD SVG 1.1//EN" "http://www.w3.org/Graphics/SVG/1.1/DTD/svg11.dtd">
<svg version="1.1" xmlns="http://www.w3.org/2000/svg" xmlns:xlink="http://www.w3.org/1999/xlink" x="0px" y="0px" width="32px"
	 height="32px" viewBox="0 0 32 32" enable-background="new 0 0 32 32" xml:space="preserve">
<g id="grid" display="none">
</g>
<g id="add">
	<path d="M24.6,9.5l-2.2,2.2c0.7,1.2,1.1,2.5,1.1,3.9c0,4.3-3.5,7.8-7.8,7.8s-7.8-3.5-7.8-7.8s3.5-7.8,7.8-7.8c0.1,0,0.3,0,0.3,0
		v5.2l4.7-4.7l1.6-1.6L16,0.5v4.4c0,0-0.2,0-0.3,0C9.8,4.9,5,9.7,5,15.6c0,5.9,4.8,10.8,10.8,10.8c5.9,0,10.8-4.8,10.8-10.8
		C26.5,13.4,25.8,11.2,24.6,9.5z"/>
</g>
</svg>
