<?xml version="1.0" encoding="utf-8"?>
<!-- Generator: Adobe Illustrator 18.1.0, SVG Export Plug-In . SVG Version: 6.00 Build 0)  -->
<!DOCTYPE svg PUBLIC "-//W3C//DTD SVG 1.1//EN" "http://www.w3.org/Graphics/SVG/1.1/DTD/svg11.dtd">
<svg version="1.1" xmlns="http://www.w3.org/2000/svg" xmlns:xlink="http://www.w3.org/1999/xlink" x="0px" y="0px" width="32px"
	 height="32px" viewBox="0 0 32 32" enable-background="new 0 0 32 32" xml:space="preserve">
<g id="grid">
</g>
<g id="add">
	<rect x="15.5" y="8.9" transform="matrix(0.7071 -0.7071 0.7071 0.7071 -1.2742 16.6919)" width="8.1" height="2"/>
	<rect x="18.5" y="1.5" transform="matrix(0.7071 -0.7071 0.7071 0.7071 1.7686 15.4316)" width="2" height="8.1"/>
	<path d="M25.8,10.8l-2.5,2.5c0.8,1.3,1.2,2.8,1.2,4.5c0,4.9-4,8.8-8.8,8.8s-8.8-4-8.8-8.8s4-8.8,8.8-8.8c1.7,0,3.4,0.5,4.7,1.4
		l2.4-2.4c-2-1.5-4.5-2.4-7.2-2.4C9,5.6,3.5,11,3.5,17.8C3.5,24.5,9,30,15.7,30c6.8,0,12.2-5.5,12.2-12.2
		C27.9,15.2,27.1,12.8,25.8,10.8z"/>
</g>
</svg>
