<?xml version="1.0" encoding="utf-8"?>
<!-- Generator: Adobe Illustrator 18.1.0, SVG Export Plug-In . SVG Version: 6.00 Build 0)  -->
<!DOCTYPE svg PUBLIC "-//W3C//DTD SVG 1.1//EN" "http://www.w3.org/Graphics/SVG/1.1/DTD/svg11.dtd">
<svg version="1.1" xmlns="http://www.w3.org/2000/svg" xmlns:xlink="http://www.w3.org/1999/xlink" x="0px" y="0px" width="32px"
	 height="32px" viewBox="0 0 32 32" enable-background="new 0 0 32 32" xml:space="preserve">
<g id="grid">
</g>
<g id="goal" display="none">
	<path display="inline" d="M24.1,5.7c2.4,0,5.5-1.3,6.9-2.3v18.6c-1.4,1-4.6,2.3-6.9,2.3s-4.5-0.7-5.9-1.7c-1.4-1-2.8-1.7-5.1-1.7
		c-2.4,0-4.6,1.2-6,2.2V4.5c1.4-1,3.7-2.2,6-2.2c2.4,0,3.7,0.7,5.1,1.7S21.7,5.7,24.1,5.7z M3.1,0.4c1.1,0,2,0.9,2,2V32H1V2.4
		C1,1.3,2,0.4,3.1,0.4z"/>
</g>
<g id="calendar" display="none">
	<path display="inline" d="M25,3V0h-3v3H10V0H7v3H0v29h32V3H25z M28,28H4V10h24V28z"/>
</g>
<g id="history" display="none">
	<path display="inline" d="M18.4,2.4C25.9,2.4,32,8.5,32,16s-6.1,13.6-13.6,13.6v-2.9c2.9,0,5.5-1.1,7.6-3.1s3.1-4.7,3.1-7.6
		c0-2.9-1.1-5.5-3.1-7.6s-4.7-3.1-7.6-3.1c-2.9,0-5.5,1.1-7.6,3.1c-1.6,1.6-2.6,3.5-3,5.6h5.7l-6.8,7.8l-6.8-7.8h5
		C5.9,7.5,11.6,2.4,18.4,2.4z M24.2,14.1v3.9h-7.8V8.2h3.9v5.8H24.2z"/>
</g>
<g id="settings">
	<path id="settings_1_" d="M30.8,13.5L27.7,13c-0.2-0.9-0.6-1.8-1-2.6l2-2.5c0.4-0.5,0.4-1.3,0-1.8l-1.2-1.4C27,4.1,26.2,4,25.7,4.4
		L23,6.1c-1.2-0.8-2.5-1.4-4-1.8l-0.5-3.1C18.4,0.5,17.8,0,17.2,0h-1.9c-0.7,0-1.3,0.5-1.4,1.2l-0.5,3.1c-1.2,0.3-2.3,0.8-3.3,1.4
		L7.5,3.9C7,3.5,6.2,3.5,5.7,4L4.4,5.3C3.9,5.8,3.9,6.6,4.3,7.1l1.8,2.6c-0.6,1-1.1,2.1-1.4,3.3l-3.2,0.5c-0.7,0.1-1.2,0.7-1.2,1.4
		v1.9c0,0.7,0.5,1.3,1.2,1.4l3.2,0.5c0.2,1,0.6,1.9,1,2.8l-2,2.5c-0.4,0.5-0.4,1.3,0,1.8l1.2,1.4c0.5,0.5,1.2,0.6,1.8,0.3l2.7-1.7
		c1.1,0.8,2.4,1.4,3.8,1.7l0.5,3.1c0.1,0.7,0.7,1.2,1.4,1.2h1.9c0.7,0,1.3-0.5,1.4-1.2l0.5-3.1c1.2-0.3,2.3-0.7,3.3-1.4l2.7,1.9
		c0.5,0.4,1.3,0.3,1.8-0.1l1.3-1.3c0.5-0.5,0.5-1.2,0.1-1.8l-1.9-2.6c0.6-1,1.1-2.1,1.4-3.3l3.1-0.5c0.7-0.1,1.2-0.7,1.2-1.4v-1.9
		C32,14.2,31.5,13.6,30.8,13.5z M16.2,21.7c-3.3,0-5.9-2.7-5.9-5.9c0-3.3,2.7-5.9,5.9-5.9c3.3,0,5.9,2.7,5.9,5.9
		C22.2,19.1,19.5,21.7,16.2,21.7z"/>
</g>
</svg>
