<?xml version="1.0" encoding="utf-8"?>
<!-- Generator: Adobe Illustrator 18.1.0, SVG Export Plug-In . SVG Version: 6.00 Build 0)  -->
<!DOCTYPE svg PUBLIC "-//W3C//DTD SVG 1.1//EN" "http://www.w3.org/Graphics/SVG/1.1/DTD/svg11.dtd">
<svg version="1.1" xmlns="http://www.w3.org/2000/svg" xmlns:xlink="http://www.w3.org/1999/xlink" x="0px" y="0px" width="32px"
	 height="32px" viewBox="0 0 32 32" enable-background="new 0 0 32 32" xml:space="preserve">
<g id="grid" display="none">
</g>
<g id="add">
	<g>
		<path d="M24.6,9.5l-1.9,1.9c1.9,3.1,1.4,7.3-1.3,10c-2,2-4.4,2.7-7.4,2.2v-5l-4.6,4.7l-1.6,1.6l6.2,6.3v-4.8c3,0.5,6.8-0.5,9.3-3
			C27,19.5,27.5,13.6,24.6,9.5z"/>
		<path d="M10.1,9.9C11.7,8.3,14,7.5,16,7.6v5.5l4.7-4.7l1.6-1.6L16,0.5v4.4c-3,0-5.6,1-7.8,3.1c-3.6,3.6-4.1,9-1.6,13.1l2-2
			C7.1,16.2,7.6,12.4,10.1,9.9z"/>
	</g>
</g>
</svg>
