<?xml version="1.0" encoding="utf-8"?>
<!-- Generator: Adobe Illustrator 18.1.0, SVG Export Plug-In . SVG Version: 6.00 Build 0)  -->
<!DOCTYPE svg PUBLIC "-//W3C//DTD SVG 1.1//EN" "http://www.w3.org/Graphics/SVG/1.1/DTD/svg11.dtd">
<svg version="1.1" xmlns="http://www.w3.org/2000/svg" xmlns:xlink="http://www.w3.org/1999/xlink" x="0px" y="0px" width="32px"
	 height="32px" viewBox="0 0 32 32" enable-background="new 0 0 32 32" xml:space="preserve">
<g id="grid">
</g>
<g id="add">
	<g>
		<path d="M25.9,9l-2.2,2.2c2.1,3.5,1.7,8.1-1.3,11.1c-2.8,2.8-6.8,3.3-10.2,1.8l2.5-2.5l-1.4-1.4l-4.2,4.2l-1.4,1.4l1.4,1.4
			l4.2,4.2l1.4-1.4l-2.8-2.8c4.3,1.6,9.2,0.6,12.6-2.8C28.7,20.2,29.2,13.7,25.9,9z"/>
		<path d="M9.7,9.6C12.2,7,15.8,6.3,19,7.4l-2.8,2.8l1.4,1.4l4.2-4.2l1.4-1.4l-5.6-5.6l-1.4,1.4l2.4,2.4c-3.8-0.8-8,0.3-11,3.2
			c-4,4-4.6,10.1-1.8,14.7l2.2-2.2C6.3,16.5,6.9,12.4,9.7,9.6z"/>
	</g>
</g>
</svg>
