<?xml version="1.0" encoding="utf-8"?>
<!-- Generator: Adobe Illustrator 19.1.0, SVG Export Plug-In . SVG Version: 6.00 Build 0)  -->
<!DOCTYPE svg PUBLIC "-//W3C//DTD SVG 1.1 Tiny//EN" "http://www.w3.org/Graphics/SVG/1.1/DTD/svg11-tiny.dtd">
<svg version="1.1" baseProfile="tiny" id="Layer_1" xmlns="http://www.w3.org/2000/svg" xmlns:xlink="http://www.w3.org/1999/xlink"
	 x="0px" y="0px" viewBox="0 0 16 16" xml:space="preserve">
<g id="XMLID_79_">
	<path d="M7.7,13.7c-1.5,0-3-0.6-4.1-1.6c-0.1-0.1-0.2-0.4,0-0.5c0.1-0.1,0.4-0.2,0.5,0c1,1,2.3,1.5,3.7,1.4
		c1.4-0.1,2.8-0.7,3.7-1.8c0.8-0.9,1.2-2,1.2-3.2l-1.4,1.6c-0.1,0.2-0.4,0.2-0.5,0c-0.2-0.1-0.2-0.4,0-0.5l2-2.3
		c0.1-0.1,0.2-0.1,0.3-0.1c0.1,0,0.2,0.1,0.3,0.2l1.7,2.6c0.1,0.2,0.1,0.4-0.1,0.5C15,10,14.7,10,14.6,9.8l-1-1.5
		c-0.1,1.3-0.6,2.4-1.4,3.4c-1.1,1.2-2.6,2-4.3,2.1C7.9,13.7,7.8,13.7,7.7,13.7z"/>
</g>
<g id="XMLID_76_">
	<path d="M2.7,8.9C2.7,8.9,2.7,8.9,2.7,8.9c-0.1,0-0.2-0.1-0.3-0.2L0.7,6.1C0.6,5.9,0.6,5.7,0.8,5.6C1,5.5,1.2,5.5,1.3,5.7l1,1.5
		C2.4,6,2.9,4.8,3.7,3.8c1.1-1.3,2.6-2,4.3-2.1c1.7,0,3.3,0.6,4.4,1.8c0.1,0.1,0.1,0.4,0,0.5c-0.1,0.1-0.4,0.1-0.5,0
		c-1-1-2.4-1.6-3.9-1.6C6.6,2.6,5.2,3.2,4.3,4.3c-0.8,0.9-1.2,2-1.2,3.2l1.4-1.6c0.1-0.2,0.4-0.2,0.5,0s0.2,0.4,0,0.5L3,8.7
		C2.9,8.8,2.8,8.9,2.7,8.9z"/>
</g>
</svg>
