<?xml version="1.0" encoding="UTF-8" standalone="no"?>
<svg width="32px" height="32px" viewBox="0 0 32 32" version="1.1" xmlns="http://www.w3.org/2000/svg" xmlns:xlink="http://www.w3.org/1999/xlink" xmlns:sketch="http://www.bohemiancoding.com/sketch/ns">
    <!-- Generator: Sketch 3.3.2 (12043) - http://www.bohemiancoding.com/sketch -->
    <title>Artboard 22</title>
    <desc>Created with Sketch.</desc>
    <defs></defs>
    <g id="Page-1" stroke="none" stroke-width="1" fill="none" fill-rule="evenodd" sketch:type="MSPage">
        <g id="Artboard-22" sketch:type="MSArtboardGroup" fill="#000000">
            <g id="Imported-Layers" sketch:type="MSLayerGroup" transform="translate(0.000000, 1.000000)">
                <path d="M15.0754286,5.57371429 C15.0754286,8.53257143 12.6765714,10.9325714 9.71657143,10.9325714 C6.75657143,10.9325714 4.35657143,8.53257143 4.35657143,5.57371429 C4.35657143,2.61371429 6.75657143,0.213714286 9.71657143,0.213714286 C12.6765714,0.213714286 15.0754286,2.61371429 15.0754286,5.57371429" id="Fill-1" sketch:type="MSShapeGroup"></path>
                <path d="M0.571428571,25.4285714 C0.571428571,25.4285714 -1.06057143,10.7302857 9.50171429,10.7302857 C20.064,10.7302857 18.2857143,25.4285714 18.2857143,25.4285714 C18.2857143,25.4285714 15.0651429,26.616 9.44,26.616 C3.81485714,26.616 0.571428571,25.4285714 0.571428571,25.4285714" id="Fill-2" sketch:type="MSShapeGroup"></path>
                <path d="M30.6422857,3.176 L17.2297143,3.176 C16.8571429,3.176 16.5554286,2.87428571 16.5554286,2.50171429 L16.5554286,0.801142857 C16.5554286,0.428571429 16.8571429,0.126857143 17.2297143,0.126857143 L30.6422857,0.126857143 C31.0148571,0.126857143 31.3165714,0.428571429 31.3165714,0.801142857 L31.3165714,2.50171429 C31.3165714,2.87428571 31.0148571,3.176 30.6422857,3.176" id="Fill-3" sketch:type="MSShapeGroup"></path>
                <path d="M30.6422857,17.3028571 L21.8011429,17.3028571 C21.4285714,17.3028571 21.1268571,17 21.1268571,16.6285714 L21.1268571,14.9268571 C21.1268571,14.5542857 21.4285714,14.2525714 21.8011429,14.2525714 L30.6422857,14.2525714 C31.0148571,14.2525714 31.3165714,14.5542857 31.3165714,14.9268571 L31.3165714,16.6285714 C31.3165714,17 31.0148571,17.3028571 30.6422857,17.3028571" id="Fill-4" sketch:type="MSShapeGroup"></path>
                <path d="M30.6422857,10.4457143 L19.5154286,10.4457143 C19.1428571,10.4457143 18.8411429,10.1428571 18.8411429,9.77142857 L18.8411429,8.06971429 C18.8411429,7.69714286 19.1428571,7.39542857 19.5154286,7.39542857 L30.6422857,7.39542857 C31.0148571,7.39542857 31.3165714,7.69714286 31.3165714,8.06971429 L31.3165714,9.77142857 C31.3165714,10.1428571 31.0148571,10.4457143 30.6422857,10.4457143" id="Fill-5" sketch:type="MSShapeGroup"></path>
                <path d="M30.6422857,24.5714286 L24.0868571,24.5714286 C23.7142857,24.5714286 23.4125714,24.2697143 23.4125714,23.8971429 L23.4125714,22.1965714 C23.4125714,21.824 23.7142857,21.5222857 24.0868571,21.5222857 L30.6422857,21.5222857 C31.0148571,21.5222857 31.3165714,21.824 31.3165714,22.1965714 L31.3165714,23.8971429 C31.3165714,24.2697143 31.0148571,24.5714286 30.6422857,24.5714286" id="Fill-6" sketch:type="MSShapeGroup"></path>
            </g>
        </g>
    </g>
</svg>