<?xml version="1.0" encoding="utf-8"?>
<!-- Generator: Adobe Illustrator 18.1.0, SVG Export Plug-In . SVG Version: 6.00 Build 0)  -->
<!DOCTYPE svg PUBLIC "-//W3C//DTD SVG 1.1//EN" "http://www.w3.org/Graphics/SVG/1.1/DTD/svg11.dtd">
<svg version="1.1" xmlns="http://www.w3.org/2000/svg" xmlns:xlink="http://www.w3.org/1999/xlink" x="0px" y="0px" width="32px"
	 height="32px" viewBox="0 0 32 32" enable-background="new 0 0 32 32" xml:space="preserve">
<g id="variation-settings">
	<rect x="4" width="4" height="32"/>
	<rect x="14" width="4" height="32"/>
	<rect x="24" width="4" height="32"/>
	<g>
		<circle fill="#FFFFFF" cx="6" cy="13" r="6"/>
		<path d="M6,9c2.2,0,4,1.8,4,4s-1.8,4-4,4s-4-1.8-4-4S3.8,9,6,9 M6,7c-3.3,0-6,2.7-6,6s2.7,6,6,6s6-2.7,6-6S9.3,7,6,7L6,7z"/>
	</g>
	<g>
		<circle fill="#FFFFFF" cx="16" cy="24" r="6"/>
		<path d="M16,20c2.2,0,4,1.8,4,4s-1.8,4-4,4s-4-1.8-4-4S13.8,20,16,20 M16,18c-3.3,0-6,2.7-6,6s2.7,6,6,6s6-2.7,6-6S19.3,18,16,18
			L16,18z"/>
	</g>
	<g>
		<circle fill="#FFFFFF" cx="26" cy="8" r="6"/>
		<path d="M26,4c2.2,0,4,1.8,4,4s-1.8,4-4,4s-4-1.8-4-4S23.8,4,26,4 M26,2c-3.3,0-6,2.7-6,6s2.7,6,6,6s6-2.7,6-6S29.3,2,26,2L26,2z"
			/>
	</g>
</g>
</svg>
