<?xml version="1.0" encoding="utf-8"?>
<!-- Generator: Adobe Illustrator 18.1.0, SVG Export Plug-In . SVG Version: 6.00 Build 0)  -->
<!DOCTYPE svg PUBLIC "-//W3C//DTD SVG 1.1//EN" "http://www.w3.org/Graphics/SVG/1.1/DTD/svg11.dtd">
<svg version="1.1" xmlns="http://www.w3.org/2000/svg" xmlns:xlink="http://www.w3.org/1999/xlink" x="0px" y="0px" width="32px"
	 height="32px" viewBox="0 0 32 32" enable-background="new 0 0 32 32" xml:space="preserve">
<g id="grid">
</g>
<g id="variation-settings">
	<path d="M12,12.6c0-0.1,0-0.3,0-0.4c0-0.1,0-0.2,0-0.3C11.5,9.8,10,8.1,8,7.4c0,0,0,0,0,0V0H4v7.3c-2.3,0.8-4,3-4,5.7
		s1.7,4.8,4,5.7V32h4V18.7c0,0,0,0,0,0c2-0.7,3.5-2.5,3.9-4.6c0-0.1,0-0.2,0-0.3c0-0.1,0-0.3,0-0.4c0-0.1,0-0.3,0-0.4
		S12,12.7,12,12.6z M6,16c-1.7,0-3-1.3-3-3c0-1.7,1.3-3,3-3s3,1.3,3,3C9,14.7,7.7,16,6,16z"/>
	<path d="M22,21.6c0-0.1,0-0.3,0-0.4c0-0.1,0-0.2,0-0.3c-0.4-2.1-1.9-3.9-3.9-4.6c0,0,0,0,0,0V0h-4v16.3c-2.3,0.8-4,3-4,5.7
		s1.7,4.8,4,5.7V32h4v-4.3c0,0,0,0,0,0c2-0.7,3.5-2.5,3.9-4.6c0-0.1,0-0.2,0-0.3c0-0.1,0-0.3,0-0.4c0-0.1,0-0.3,0-0.4
		S22,21.7,22,21.6z M16,25c-1.7,0-3-1.3-3-3c0-1.7,1.3-3,3-3s3,1.3,3,3C19,23.7,17.7,25,16,25z"/>
	<path d="M32,9.6c0-0.1,0-0.3,0-0.4c0-0.1,0-0.2,0-0.3C31.5,6.8,30,5.1,28,4.4c0,0,0,0,0,0V0h-4v4.3c-2,0.8-4,3-4,5.7s2,4.8,4,5.7
		V32h4V15.7c0,0,0,0,0,0c2-0.7,3.5-2.5,3.9-4.6c0-0.1,0-0.2,0-0.3c0-0.1,0-0.3,0-0.4c0-0.1,0-0.3,0-0.4S32,9.7,32,9.6z M26,13
		c-1.7,0-3-1.3-3-3c0-1.7,1.3-3,3-3s3,1.3,3,3C29,11.7,27.6,13,26,13z"/>
</g>
</svg>
